<?xml version="1.0" encoding="utf-8" standalone="no"?>
<!DOCTYPE svg PUBLIC "-//W3C//DTD SVG 1.1//EN"
  "http://www.w3.org/Graphics/SVG/1.1/DTD/svg11.dtd">
<svg xmlns:xlink="http://www.w3.org/1999/xlink" width="655.493879pt" height="237.076655pt" viewBox="0 0 655.493879 237.076655" xmlns="http://www.w3.org/2000/svg" version="1.1">
 <metadata>
  <rdf:RDF xmlns:dc="http://purl.org/dc/elements/1.1/" xmlns:cc="http://creativecommons.org/ns#" xmlns:rdf="http://www.w3.org/1999/02/22-rdf-syntax-ns#">
   <cc:Work>
    <dc:type rdf:resource="http://purl.org/dc/dcmitype/StillImage"/>
    <dc:date>2026-08-28T09:38:55.823059</dc:date>
    <dc:format>image/svg+xml</dc:format>
    <dc:creator>
     <cc:Agent>
      <dc:title>Matplotlib v3.11.1, https://matplotlib.org/</dc:title>
     </cc:Agent>
    </dc:creator>
   </cc:Work>
  </rdf:RDF>
 </metadata>
 <defs>
  <style type="text/css">*{stroke-linejoin: round; stroke-linecap: butt}</style>
 </defs>
 <g id="figure_1">
  <g id="patch_1">
   <path d="M 0 237.076655
L 655.493879 237.076655
L 655.493879 0
L 0 0
z
" style="fill: #ffffff"/>
  </g>
  <g id="axes_1">
   <g id="patch_2">
    <path d="M 215.830937 163.084943
L 642.572654 163.084943
L 642.572654 21.936328
L 215.830937 21.936328
z
" style="fill: #ffffff"/>
   </g>
   <g id="matplotlib.axis_1">
    <g id="xtick_1">
     <g id="line2d_1">
      <path d="M 248.514145 163.084943
L 248.514145 21.936328
" clip-path="url(#pa14e9439d9)" style="fill: none; stroke: #cccccc; stroke-linecap: round"/>
     </g>
     <g id="text_1">
      <text style="font-size: 11px; font-family: 'Arial', 'DejaVu Sans', 'Liberation Sans', 'Bitstream Vera Sans', sans-serif; text-anchor: middle; fill: #262626" x="248.514145" y="180.593244" transform="rotate(-0 248.514145 180.593244)">−75</text>
     </g>
    </g>
    <g id="xtick_2">
     <g id="line2d_2">
      <path d="M 304.314743 163.084943
L 304.314743 21.936328
" clip-path="url(#pa14e9439d9)" style="fill: none; stroke: #cccccc; stroke-linecap: round"/>
     </g>
     <g id="text_2">
      <text style="font-size: 11px; font-family: 'Arial', 'DejaVu Sans', 'Liberation Sans', 'Bitstream Vera Sans', sans-serif; text-anchor: middle; fill: #262626" x="304.314743" y="180.593244" transform="rotate(-0 304.314743 180.593244)">−50</text>
     </g>
    </g>
    <g id="xtick_3">
     <g id="line2d_3">
      <path d="M 360.115341 163.084943
L 360.115341 21.936328
" clip-path="url(#pa14e9439d9)" style="fill: none; stroke: #cccccc; stroke-linecap: round"/>
     </g>
     <g id="text_3">
      <text style="font-size: 11px; font-family: 'Arial', 'DejaVu Sans', 'Liberation Sans', 'Bitstream Vera Sans', sans-serif; text-anchor: middle; fill: #262626" x="360.115341" y="180.593244" transform="rotate(-0 360.115341 180.593244)">−25</text>
     </g>
    </g>
    <g id="xtick_4">
     <g id="line2d_4">
      <path d="M 415.915939 163.084943
L 415.915939 21.936328
" clip-path="url(#pa14e9439d9)" style="fill: none; stroke: #cccccc; stroke-linecap: round"/>
     </g>
     <g id="text_4">
      <text style="font-size: 11px; font-family: 'Arial', 'DejaVu Sans', 'Liberation Sans', 'Bitstream Vera Sans', sans-serif; text-anchor: middle; fill: #262626" x="415.915939" y="180.593244" transform="rotate(-0 415.915939 180.593244)">0</text>
     </g>
    </g>
    <g id="xtick_5">
     <g id="line2d_5">
      <path d="M 471.716537 163.084943
L 471.716537 21.936328
" clip-path="url(#pa14e9439d9)" style="fill: none; stroke: #cccccc; stroke-linecap: round"/>
     </g>
     <g id="text_5">
      <text style="font-size: 11px; font-family: 'Arial', 'DejaVu Sans', 'Liberation Sans', 'Bitstream Vera Sans', sans-serif; text-anchor: middle; fill: #262626" x="471.716537" y="180.593244" transform="rotate(-0 471.716537 180.593244)">25</text>
     </g>
    </g>
    <g id="xtick_6">
     <g id="line2d_6">
      <path d="M 527.517136 163.084943
L 527.517136 21.936328
" clip-path="url(#pa14e9439d9)" style="fill: none; stroke: #cccccc; stroke-linecap: round"/>
     </g>
     <g id="text_6">
      <text style="font-size: 11px; font-family: 'Arial', 'DejaVu Sans', 'Liberation Sans', 'Bitstream Vera Sans', sans-serif; text-anchor: middle; fill: #262626" x="527.517136" y="180.593244" transform="rotate(-0 527.517136 180.593244)">50</text>
     </g>
    </g>
    <g id="xtick_7">
     <g id="line2d_7">
      <path d="M 583.317734 163.084943
L 583.317734 21.936328
" clip-path="url(#pa14e9439d9)" style="fill: none; stroke: #cccccc; stroke-linecap: round"/>
     </g>
     <g id="text_7">
      <text style="font-size: 11px; font-family: 'Arial', 'DejaVu Sans', 'Liberation Sans', 'Bitstream Vera Sans', sans-serif; text-anchor: middle; fill: #262626" x="583.317734" y="180.593244" transform="rotate(-0 583.317734 180.593244)">75</text>
     </g>
    </g>
    <g id="xtick_8">
     <g id="line2d_8">
      <path d="M 639.118332 163.084943
L 639.118332 21.936328
" clip-path="url(#pa14e9439d9)" style="fill: none; stroke: #cccccc; stroke-linecap: round"/>
     </g>
     <g id="text_8">
      <text style="font-size: 11px; font-family: 'Arial', 'DejaVu Sans', 'Liberation Sans', 'Bitstream Vera Sans', sans-serif; text-anchor: middle; fill: #262626" x="639.118332" y="180.593244" transform="rotate(-0 639.118332 180.593244)">100</text>
     </g>
    </g>
    <g id="text_9">
     <text style="font-size: 12px; font-family: 'Arial', 'DejaVu Sans', 'Liberation Sans', 'Bitstream Vera Sans', sans-serif; text-anchor: middle; fill: #262626" x="429.201796" y="195.644514" transform="rotate(-0 429.201796 195.644514)">Percentage (1–3 disagree; 4–6 agree)</text>
    </g>
   </g>
   <g id="matplotlib.axis_2">
    <g id="ytick_1">
     <g id="line2d_9">
      <path d="M 215.830937 32.7019
L 642.572654 32.7019
" clip-path="url(#pa14e9439d9)" style="fill: none; stroke: #cccccc; stroke-linecap: round"/>
     </g>
     <g id="text_10">
      <text style="font-size: 11px; font-family: 'Arial', 'DejaVu Sans', 'Liberation Sans', 'Bitstream Vera Sans', sans-serif; text-anchor: end; fill: #262626" x="206.330937" y="36.706051" transform="rotate(-0 206.330937 36.706051)">Baseline — Position awareness</text>
     </g>
    </g>
    <g id="ytick_2">
     <g id="line2d_10">
      <path d="M 215.830937 43.576216
L 642.572654 43.576216
" clip-path="url(#pa14e9439d9)" style="fill: none; stroke: #cccccc; stroke-linecap: round"/>
     </g>
     <g id="text_11">
      <text style="font-size: 11px; font-family: 'Arial', 'DejaVu Sans', 'Liberation Sans', 'Bitstream Vera Sans', sans-serif; text-anchor: end; fill: #262626" x="206.330937" y="47.580366" transform="rotate(-0 206.330937 47.580366)">Baseline — Direction awareness</text>
     </g>
    </g>
    <g id="ytick_3">
     <g id="line2d_11">
      <path d="M 215.830937 54.450531
L 642.572654 54.450531
" clip-path="url(#pa14e9439d9)" style="fill: none; stroke: #cccccc; stroke-linecap: round"/>
     </g>
     <g id="text_12">
      <text style="font-size: 11px; font-family: 'Arial', 'DejaVu Sans', 'Liberation Sans', 'Bitstream Vera Sans', sans-serif; text-anchor: end; fill: #262626" x="206.330937" y="58.454682" transform="rotate(-0 206.330937 58.454682)">Baseline — Additional reorientation effort</text>
     </g>
    </g>
    <g id="ytick_4">
     <g id="line2d_12">
      <path d="M 215.830937 65.324847
L 642.572654 65.324847
" clip-path="url(#pa14e9439d9)" style="fill: none; stroke: #cccccc; stroke-linecap: round"/>
     </g>
     <g id="text_13">
      <text style="font-size: 11px; font-family: 'Arial', 'DejaVu Sans', 'Liberation Sans', 'Bitstream Vera Sans', sans-serif; text-anchor: end; fill: #262626" x="206.330937" y="69.328997" transform="rotate(-0 206.330937 69.328997)">Baseline — Environmental continuity</text>
     </g>
    </g>
    <g id="ytick_5">
     <g id="line2d_13">
      <path d="M 215.830937 76.199162
L 642.572654 76.199162
" clip-path="url(#pa14e9439d9)" style="fill: none; stroke: #cccccc; stroke-linecap: round"/>
     </g>
     <g id="text_14">
      <text style="font-size: 11px; font-family: 'Arial', 'DejaVu Sans', 'Liberation Sans', 'Bitstream Vera Sans', sans-serif; text-anchor: end; fill: #262626" x="206.330937" y="80.203313" transform="rotate(-0 206.330937 80.203313)">Minimap — Position awareness</text>
     </g>
    </g>
    <g id="ytick_6">
     <g id="line2d_14">
      <path d="M 215.830937 87.073478
L 642.572654 87.073478
" clip-path="url(#pa14e9439d9)" style="fill: none; stroke: #cccccc; stroke-linecap: round"/>
     </g>
     <g id="text_15">
      <text style="font-size: 11px; font-family: 'Arial', 'DejaVu Sans', 'Liberation Sans', 'Bitstream Vera Sans', sans-serif; text-anchor: end; fill: #262626" x="206.330937" y="91.077628" transform="rotate(-0 206.330937 91.077628)">Minimap — Direction awareness</text>
     </g>
    </g>
    <g id="ytick_7">
     <g id="line2d_15">
      <path d="M 215.830937 97.947793
L 642.572654 97.947793
" clip-path="url(#pa14e9439d9)" style="fill: none; stroke: #cccccc; stroke-linecap: round"/>
     </g>
     <g id="text_16">
      <text style="font-size: 11px; font-family: 'Arial', 'DejaVu Sans', 'Liberation Sans', 'Bitstream Vera Sans', sans-serif; text-anchor: end; fill: #262626" x="206.330937" y="101.951944" transform="rotate(-0 206.330937 101.951944)">Minimap — Additional reorientation effort</text>
     </g>
    </g>
    <g id="ytick_8">
     <g id="line2d_16">
      <path d="M 215.830937 108.822109
L 642.572654 108.822109
" clip-path="url(#pa14e9439d9)" style="fill: none; stroke: #cccccc; stroke-linecap: round"/>
     </g>
     <g id="text_17">
      <text style="font-size: 11px; font-family: 'Arial', 'DejaVu Sans', 'Liberation Sans', 'Bitstream Vera Sans', sans-serif; text-anchor: end; fill: #262626" x="206.330937" y="112.826259" transform="rotate(-0 206.330937 112.826259)">Minimap — Environmental continuity</text>
     </g>
    </g>
    <g id="ytick_9">
     <g id="line2d_17">
      <path d="M 215.830937 119.696424
L 642.572654 119.696424
" clip-path="url(#pa14e9439d9)" style="fill: none; stroke: #cccccc; stroke-linecap: round"/>
     </g>
     <g id="text_18">
      <text style="font-size: 11px; font-family: 'Arial', 'DejaVu Sans', 'Liberation Sans', 'Bitstream Vera Sans', sans-serif; text-anchor: end; fill: #262626" x="206.330937" y="123.700575" transform="rotate(-0 206.330937 123.700575)">Tsunami — Position awareness</text>
     </g>
    </g>
    <g id="ytick_10">
     <g id="line2d_18">
      <path d="M 215.830937 130.57074
L 642.572654 130.57074
" clip-path="url(#pa14e9439d9)" style="fill: none; stroke: #cccccc; stroke-linecap: round"/>
     </g>
     <g id="text_19">
      <text style="font-size: 11px; font-family: 'Arial', 'DejaVu Sans', 'Liberation Sans', 'Bitstream Vera Sans', sans-serif; text-anchor: end; fill: #262626" x="206.330937" y="134.57489" transform="rotate(-0 206.330937 134.57489)">Tsunami — Direction awareness</text>
     </g>
    </g>
    <g id="ytick_11">
     <g id="line2d_19">
      <path d="M 215.830937 141.445055
L 642.572654 141.445055
" clip-path="url(#pa14e9439d9)" style="fill: none; stroke: #cccccc; stroke-linecap: round"/>
     </g>
     <g id="text_20">
      <text style="font-size: 11px; font-family: 'Arial', 'DejaVu Sans', 'Liberation Sans', 'Bitstream Vera Sans', sans-serif; text-anchor: end; fill: #262626" x="206.330937" y="145.449206" transform="rotate(-0 206.330937 145.449206)">Tsunami — Additional reorientation effort</text>
     </g>
    </g>
    <g id="ytick_12">
     <g id="line2d_20">
      <path d="M 215.830937 152.319371
L 642.572654 152.319371
" clip-path="url(#pa14e9439d9)" style="fill: none; stroke: #cccccc; stroke-linecap: round"/>
     </g>
     <g id="text_21">
      <text style="font-size: 11px; font-family: 'Arial', 'DejaVu Sans', 'Liberation Sans', 'Bitstream Vera Sans', sans-serif; text-anchor: end; fill: #262626" x="206.330937" y="156.323521" transform="rotate(-0 206.330937 156.323521)">Tsunami — Environmental continuity</text>
     </g>
    </g>
   </g>
   <g id="patch_3">
    <path d="M 415.915939 28.352174
L 399.972911 28.352174
L 399.972911 37.051627
L 415.915939 37.051627
z
" clip-path="url(#pa14e9439d9)" style="fill: #fddbc7; stroke: #ffffff; stroke-width: 0.4; stroke-linejoin: miter"/>
   </g>
   <g id="patch_4">
    <path d="M 399.972911 28.352174
L 389.344226 28.352174
L 389.344226 37.051627
L 399.972911 37.051627
z
" clip-path="url(#pa14e9439d9)" style="fill: #ef8a62; stroke: #ffffff; stroke-width: 0.4; stroke-linejoin: miter"/>
   </g>
   <g id="patch_5">
    <path d="M 389.344226 28.352174
L 384.029883 28.352174
L 384.029883 37.051627
L 389.344226 37.051627
z
" clip-path="url(#pa14e9439d9)" style="fill: #b2182b; stroke: #ffffff; stroke-width: 0.4; stroke-linejoin: miter"/>
   </g>
   <g id="patch_6">
    <path d="M 415.915939 28.352174
L 442.487653 28.352174
L 442.487653 37.051627
L 415.915939 37.051627
z
" clip-path="url(#pa14e9439d9)" style="fill: #d1e5f0; stroke: #ffffff; stroke-width: 0.4; stroke-linejoin: miter"/>
   </g>
   <g id="patch_7">
    <path d="M 442.487653 28.352174
L 490.316737 28.352174
L 490.316737 37.051627
L 442.487653 37.051627
z
" clip-path="url(#pa14e9439d9)" style="fill: #67a9cf; stroke: #ffffff; stroke-width: 0.4; stroke-linejoin: miter"/>
   </g>
   <g id="patch_8">
    <path d="M 490.316737 28.352174
L 607.232276 28.352174
L 607.232276 37.051627
L 490.316737 37.051627
z
" clip-path="url(#pa14e9439d9)" style="fill: #2166ac; stroke: #ffffff; stroke-width: 0.4; stroke-linejoin: miter"/>
   </g>
   <g id="patch_9">
    <path d="M 415.915939 39.22649
L 405.287254 39.22649
L 405.287254 47.925942
L 415.915939 47.925942
z
" clip-path="url(#pa14e9439d9)" style="fill: #fddbc7; stroke: #ffffff; stroke-width: 0.4; stroke-linejoin: miter"/>
   </g>
   <g id="patch_10">
    <path d="M 405.287254 39.22649
L 405.287254 39.22649
L 405.287254 47.925942
L 405.287254 47.925942
z
" clip-path="url(#pa14e9439d9)" style="fill: #ef8a62; stroke: #ffffff; stroke-width: 0.4; stroke-linejoin: miter"/>
   </g>
   <g id="patch_11">
    <path d="M 405.287254 39.22649
L 399.972911 39.22649
L 399.972911 47.925942
L 405.287254 47.925942
z
" clip-path="url(#pa14e9439d9)" style="fill: #b2182b; stroke: #ffffff; stroke-width: 0.4; stroke-linejoin: miter"/>
   </g>
   <g id="patch_12">
    <path d="M 415.915939 39.22649
L 437.17331 39.22649
L 437.17331 47.925942
L 415.915939 47.925942
z
" clip-path="url(#pa14e9439d9)" style="fill: #d1e5f0; stroke: #ffffff; stroke-width: 0.4; stroke-linejoin: miter"/>
   </g>
   <g id="patch_13">
    <path d="M 437.17331 39.22649
L 485.002394 39.22649
L 485.002394 47.925942
L 437.17331 47.925942
z
" clip-path="url(#pa14e9439d9)" style="fill: #67a9cf; stroke: #ffffff; stroke-width: 0.4; stroke-linejoin: miter"/>
   </g>
   <g id="patch_14">
    <path d="M 485.002394 39.22649
L 623.175304 39.22649
L 623.175304 47.925942
L 485.002394 47.925942
z
" clip-path="url(#pa14e9439d9)" style="fill: #2166ac; stroke: #ffffff; stroke-width: 0.4; stroke-linejoin: miter"/>
   </g>
   <g id="patch_15">
    <path d="M 415.915939 50.100805
L 399.972911 50.100805
L 399.972911 58.800258
L 415.915939 58.800258
z
" clip-path="url(#pa14e9439d9)" style="fill: #fddbc7; stroke: #ffffff; stroke-width: 0.4; stroke-linejoin: miter"/>
   </g>
   <g id="patch_16">
    <path d="M 399.972911 50.100805
L 314.943428 50.100805
L 314.943428 58.800258
L 399.972911 58.800258
z
" clip-path="url(#pa14e9439d9)" style="fill: #ef8a62; stroke: #ffffff; stroke-width: 0.4; stroke-linejoin: miter"/>
   </g>
   <g id="patch_17">
    <path d="M 314.943428 50.100805
L 235.228288 50.100805
L 235.228288 58.800258
L 314.943428 58.800258
z
" clip-path="url(#pa14e9439d9)" style="fill: #b2182b; stroke: #ffffff; stroke-width: 0.4; stroke-linejoin: miter"/>
   </g>
   <g id="patch_18">
    <path d="M 415.915939 50.100805
L 415.915939 50.100805
L 415.915939 58.800258
L 415.915939 58.800258
z
" clip-path="url(#pa14e9439d9)" style="fill: #d1e5f0; stroke: #ffffff; stroke-width: 0.4; stroke-linejoin: miter"/>
   </g>
   <g id="patch_19">
    <path d="M 415.915939 50.100805
L 453.116338 50.100805
L 453.116338 58.800258
L 415.915939 58.800258
z
" clip-path="url(#pa14e9439d9)" style="fill: #67a9cf; stroke: #ffffff; stroke-width: 0.4; stroke-linejoin: miter"/>
   </g>
   <g id="patch_20">
    <path d="M 453.116338 50.100805
L 458.430681 50.100805
L 458.430681 58.800258
L 453.116338 58.800258
z
" clip-path="url(#pa14e9439d9)" style="fill: #2166ac; stroke: #ffffff; stroke-width: 0.4; stroke-linejoin: miter"/>
   </g>
   <g id="patch_21">
    <path d="M 415.915939 60.975121
L 405.287254 60.975121
L 405.287254 69.674573
L 415.915939 69.674573
z
" clip-path="url(#pa14e9439d9)" style="fill: #fddbc7; stroke: #ffffff; stroke-width: 0.4; stroke-linejoin: miter"/>
   </g>
   <g id="patch_22">
    <path d="M 405.287254 60.975121
L 389.344226 60.975121
L 389.344226 69.674573
L 405.287254 69.674573
z
" clip-path="url(#pa14e9439d9)" style="fill: #ef8a62; stroke: #ffffff; stroke-width: 0.4; stroke-linejoin: miter"/>
   </g>
   <g id="patch_23">
    <path d="M 389.344226 60.975121
L 368.086855 60.975121
L 368.086855 69.674573
L 389.344226 69.674573
z
" clip-path="url(#pa14e9439d9)" style="fill: #b2182b; stroke: #ffffff; stroke-width: 0.4; stroke-linejoin: miter"/>
   </g>
   <g id="patch_24">
    <path d="M 415.915939 60.975121
L 458.430681 60.975121
L 458.430681 69.674573
L 415.915939 69.674573
z
" clip-path="url(#pa14e9439d9)" style="fill: #d1e5f0; stroke: #ffffff; stroke-width: 0.4; stroke-linejoin: miter"/>
   </g>
   <g id="patch_25">
    <path d="M 458.430681 60.975121
L 532.831478 60.975121
L 532.831478 69.674573
L 458.430681 69.674573
z
" clip-path="url(#pa14e9439d9)" style="fill: #67a9cf; stroke: #ffffff; stroke-width: 0.4; stroke-linejoin: miter"/>
   </g>
   <g id="patch_26">
    <path d="M 532.831478 60.975121
L 591.289248 60.975121
L 591.289248 69.674573
L 532.831478 69.674573
z
" clip-path="url(#pa14e9439d9)" style="fill: #2166ac; stroke: #ffffff; stroke-width: 0.4; stroke-linejoin: miter"/>
   </g>
   <g id="patch_27">
    <path d="M 415.915939 71.849436
L 357.45817 71.849436
L 357.45817 80.548889
L 415.915939 80.548889
z
" clip-path="url(#pa14e9439d9)" style="fill: #fddbc7; stroke: #ffffff; stroke-width: 0.4; stroke-linejoin: miter"/>
   </g>
   <g id="patch_28">
    <path d="M 357.45817 71.849436
L 304.314743 71.849436
L 304.314743 80.548889
L 357.45817 80.548889
z
" clip-path="url(#pa14e9439d9)" style="fill: #ef8a62; stroke: #ffffff; stroke-width: 0.4; stroke-linejoin: miter"/>
   </g>
   <g id="patch_29">
    <path d="M 304.314743 71.849436
L 256.485659 71.849436
L 256.485659 80.548889
L 304.314743 80.548889
z
" clip-path="url(#pa14e9439d9)" style="fill: #b2182b; stroke: #ffffff; stroke-width: 0.4; stroke-linejoin: miter"/>
   </g>
   <g id="patch_30">
    <path d="M 415.915939 71.849436
L 442.487653 71.849436
L 442.487653 80.548889
L 415.915939 80.548889
z
" clip-path="url(#pa14e9439d9)" style="fill: #d1e5f0; stroke: #ffffff; stroke-width: 0.4; stroke-linejoin: miter"/>
   </g>
   <g id="patch_31">
    <path d="M 442.487653 71.849436
L 463.745023 71.849436
L 463.745023 80.548889
L 442.487653 80.548889
z
" clip-path="url(#pa14e9439d9)" style="fill: #67a9cf; stroke: #ffffff; stroke-width: 0.4; stroke-linejoin: miter"/>
   </g>
   <g id="patch_32">
    <path d="M 463.745023 71.849436
L 479.688051 71.849436
L 479.688051 80.548889
L 463.745023 80.548889
z
" clip-path="url(#pa14e9439d9)" style="fill: #2166ac; stroke: #ffffff; stroke-width: 0.4; stroke-linejoin: miter"/>
   </g>
   <g id="patch_33">
    <path d="M 415.915939 82.723752
L 389.344226 82.723752
L 389.344226 91.423204
L 415.915939 91.423204
z
" clip-path="url(#pa14e9439d9)" style="fill: #fddbc7; stroke: #ffffff; stroke-width: 0.4; stroke-linejoin: miter"/>
   </g>
   <g id="patch_34">
    <path d="M 389.344226 82.723752
L 309.629086 82.723752
L 309.629086 91.423204
L 389.344226 91.423204
z
" clip-path="url(#pa14e9439d9)" style="fill: #ef8a62; stroke: #ffffff; stroke-width: 0.4; stroke-linejoin: miter"/>
   </g>
   <g id="patch_35">
    <path d="M 309.629086 82.723752
L 267.114344 82.723752
L 267.114344 91.423204
L 309.629086 91.423204
z
" clip-path="url(#pa14e9439d9)" style="fill: #b2182b; stroke: #ffffff; stroke-width: 0.4; stroke-linejoin: miter"/>
   </g>
   <g id="patch_36">
    <path d="M 415.915939 82.723752
L 447.801995 82.723752
L 447.801995 91.423204
L 415.915939 91.423204
z
" clip-path="url(#pa14e9439d9)" style="fill: #d1e5f0; stroke: #ffffff; stroke-width: 0.4; stroke-linejoin: miter"/>
   </g>
   <g id="patch_37">
    <path d="M 447.801995 82.723752
L 463.745023 82.723752
L 463.745023 91.423204
L 447.801995 91.423204
z
" clip-path="url(#pa14e9439d9)" style="fill: #67a9cf; stroke: #ffffff; stroke-width: 0.4; stroke-linejoin: miter"/>
   </g>
   <g id="patch_38">
    <path d="M 463.745023 82.723752
L 490.316737 82.723752
L 490.316737 91.423204
L 463.745023 91.423204
z
" clip-path="url(#pa14e9439d9)" style="fill: #2166ac; stroke: #ffffff; stroke-width: 0.4; stroke-linejoin: miter"/>
   </g>
   <g id="patch_39">
    <path d="M 415.915939 93.598067
L 394.658569 93.598067
L 394.658569 102.29752
L 415.915939 102.29752
z
" clip-path="url(#pa14e9439d9)" style="fill: #fddbc7; stroke: #ffffff; stroke-width: 0.4; stroke-linejoin: miter"/>
   </g>
   <g id="patch_40">
    <path d="M 394.658569 93.598067
L 357.45817 93.598067
L 357.45817 102.29752
L 394.658569 102.29752
z
" clip-path="url(#pa14e9439d9)" style="fill: #ef8a62; stroke: #ffffff; stroke-width: 0.4; stroke-linejoin: miter"/>
   </g>
   <g id="patch_41">
    <path d="M 357.45817 93.598067
L 330.886456 93.598067
L 330.886456 102.29752
L 357.45817 102.29752
z
" clip-path="url(#pa14e9439d9)" style="fill: #b2182b; stroke: #ffffff; stroke-width: 0.4; stroke-linejoin: miter"/>
   </g>
   <g id="patch_42">
    <path d="M 415.915939 93.598067
L 485.002394 93.598067
L 485.002394 102.29752
L 415.915939 102.29752
z
" clip-path="url(#pa14e9439d9)" style="fill: #d1e5f0; stroke: #ffffff; stroke-width: 0.4; stroke-linejoin: miter"/>
   </g>
   <g id="patch_43">
    <path d="M 485.002394 93.598067
L 538.145821 93.598067
L 538.145821 102.29752
L 485.002394 102.29752
z
" clip-path="url(#pa14e9439d9)" style="fill: #67a9cf; stroke: #ffffff; stroke-width: 0.4; stroke-linejoin: miter"/>
   </g>
   <g id="patch_44">
    <path d="M 538.145821 93.598067
L 554.088849 93.598067
L 554.088849 102.29752
L 538.145821 102.29752
z
" clip-path="url(#pa14e9439d9)" style="fill: #2166ac; stroke: #ffffff; stroke-width: 0.4; stroke-linejoin: miter"/>
   </g>
   <g id="patch_45">
    <path d="M 415.915939 104.472383
L 389.344226 104.472383
L 389.344226 113.171835
L 415.915939 113.171835
z
" clip-path="url(#pa14e9439d9)" style="fill: #fddbc7; stroke: #ffffff; stroke-width: 0.4; stroke-linejoin: miter"/>
   </g>
   <g id="patch_46">
    <path d="M 389.344226 104.472383
L 320.257771 104.472383
L 320.257771 113.171835
L 389.344226 113.171835
z
" clip-path="url(#pa14e9439d9)" style="fill: #ef8a62; stroke: #ffffff; stroke-width: 0.4; stroke-linejoin: miter"/>
   </g>
   <g id="patch_47">
    <path d="M 320.257771 104.472383
L 267.114344 104.472383
L 267.114344 113.171835
L 320.257771 113.171835
z
" clip-path="url(#pa14e9439d9)" style="fill: #b2182b; stroke: #ffffff; stroke-width: 0.4; stroke-linejoin: miter"/>
   </g>
   <g id="patch_48">
    <path d="M 415.915939 104.472383
L 442.487653 104.472383
L 442.487653 113.171835
L 415.915939 113.171835
z
" clip-path="url(#pa14e9439d9)" style="fill: #d1e5f0; stroke: #ffffff; stroke-width: 0.4; stroke-linejoin: miter"/>
   </g>
   <g id="patch_49">
    <path d="M 442.487653 104.472383
L 458.430681 104.472383
L 458.430681 113.171835
L 442.487653 113.171835
z
" clip-path="url(#pa14e9439d9)" style="fill: #67a9cf; stroke: #ffffff; stroke-width: 0.4; stroke-linejoin: miter"/>
   </g>
   <g id="patch_50">
    <path d="M 458.430681 104.472383
L 490.316737 104.472383
L 490.316737 113.171835
L 458.430681 113.171835
z
" clip-path="url(#pa14e9439d9)" style="fill: #2166ac; stroke: #ffffff; stroke-width: 0.4; stroke-linejoin: miter"/>
   </g>
   <g id="patch_51">
    <path d="M 415.915939 115.346698
L 389.344226 115.346698
L 389.344226 124.046151
L 415.915939 124.046151
z
" clip-path="url(#pa14e9439d9)" style="fill: #fddbc7; stroke: #ffffff; stroke-width: 0.4; stroke-linejoin: miter"/>
   </g>
   <g id="patch_52">
    <path d="M 389.344226 115.346698
L 373.401198 115.346698
L 373.401198 124.046151
L 389.344226 124.046151
z
" clip-path="url(#pa14e9439d9)" style="fill: #ef8a62; stroke: #ffffff; stroke-width: 0.4; stroke-linejoin: miter"/>
   </g>
   <g id="patch_53">
    <path d="M 373.401198 115.346698
L 362.772513 115.346698
L 362.772513 124.046151
L 373.401198 124.046151
z
" clip-path="url(#pa14e9439d9)" style="fill: #b2182b; stroke: #ffffff; stroke-width: 0.4; stroke-linejoin: miter"/>
   </g>
   <g id="patch_54">
    <path d="M 415.915939 115.346698
L 442.487653 115.346698
L 442.487653 124.046151
L 415.915939 124.046151
z
" clip-path="url(#pa14e9439d9)" style="fill: #d1e5f0; stroke: #ffffff; stroke-width: 0.4; stroke-linejoin: miter"/>
   </g>
   <g id="patch_55">
    <path d="M 442.487653 115.346698
L 516.88845 115.346698
L 516.88845 124.046151
L 442.487653 124.046151
z
" clip-path="url(#pa14e9439d9)" style="fill: #67a9cf; stroke: #ffffff; stroke-width: 0.4; stroke-linejoin: miter"/>
   </g>
   <g id="patch_56">
    <path d="M 516.88845 115.346698
L 585.974905 115.346698
L 585.974905 124.046151
L 516.88845 124.046151
z
" clip-path="url(#pa14e9439d9)" style="fill: #2166ac; stroke: #ffffff; stroke-width: 0.4; stroke-linejoin: miter"/>
   </g>
   <g id="patch_57">
    <path d="M 415.915939 126.221014
L 405.287254 126.221014
L 405.287254 134.920466
L 415.915939 134.920466
z
" clip-path="url(#pa14e9439d9)" style="fill: #fddbc7; stroke: #ffffff; stroke-width: 0.4; stroke-linejoin: miter"/>
   </g>
   <g id="patch_58">
    <path d="M 405.287254 126.221014
L 378.715541 126.221014
L 378.715541 134.920466
L 405.287254 134.920466
z
" clip-path="url(#pa14e9439d9)" style="fill: #ef8a62; stroke: #ffffff; stroke-width: 0.4; stroke-linejoin: miter"/>
   </g>
   <g id="patch_59">
    <path d="M 378.715541 126.221014
L 368.086855 126.221014
L 368.086855 134.920466
L 378.715541 134.920466
z
" clip-path="url(#pa14e9439d9)" style="fill: #b2182b; stroke: #ffffff; stroke-width: 0.4; stroke-linejoin: miter"/>
   </g>
   <g id="patch_60">
    <path d="M 415.915939 126.221014
L 437.17331 126.221014
L 437.17331 134.920466
L 415.915939 134.920466
z
" clip-path="url(#pa14e9439d9)" style="fill: #d1e5f0; stroke: #ffffff; stroke-width: 0.4; stroke-linejoin: miter"/>
   </g>
   <g id="patch_61">
    <path d="M 437.17331 126.221014
L 485.002394 126.221014
L 485.002394 134.920466
L 437.17331 134.920466
z
" clip-path="url(#pa14e9439d9)" style="fill: #67a9cf; stroke: #ffffff; stroke-width: 0.4; stroke-linejoin: miter"/>
   </g>
   <g id="patch_62">
    <path d="M 485.002394 126.221014
L 591.289248 126.221014
L 591.289248 134.920466
L 485.002394 134.920466
z
" clip-path="url(#pa14e9439d9)" style="fill: #2166ac; stroke: #ffffff; stroke-width: 0.4; stroke-linejoin: miter"/>
   </g>
   <g id="patch_63">
    <path d="M 415.915939 137.095329
L 378.715541 137.095329
L 378.715541 145.794782
L 415.915939 145.794782
z
" clip-path="url(#pa14e9439d9)" style="fill: #fddbc7; stroke: #ffffff; stroke-width: 0.4; stroke-linejoin: miter"/>
   </g>
   <g id="patch_64">
    <path d="M 378.715541 137.095329
L 304.314743 137.095329
L 304.314743 145.794782
L 378.715541 145.794782
z
" clip-path="url(#pa14e9439d9)" style="fill: #ef8a62; stroke: #ffffff; stroke-width: 0.4; stroke-linejoin: miter"/>
   </g>
   <g id="patch_65">
    <path d="M 304.314743 137.095329
L 240.542631 137.095329
L 240.542631 145.794782
L 304.314743 145.794782
z
" clip-path="url(#pa14e9439d9)" style="fill: #b2182b; stroke: #ffffff; stroke-width: 0.4; stroke-linejoin: miter"/>
   </g>
   <g id="patch_66">
    <path d="M 415.915939 137.095329
L 442.487653 137.095329
L 442.487653 145.794782
L 415.915939 145.794782
z
" clip-path="url(#pa14e9439d9)" style="fill: #d1e5f0; stroke: #ffffff; stroke-width: 0.4; stroke-linejoin: miter"/>
   </g>
   <g id="patch_67">
    <path d="M 442.487653 137.095329
L 458.430681 137.095329
L 458.430681 145.794782
L 442.487653 145.794782
z
" clip-path="url(#pa14e9439d9)" style="fill: #67a9cf; stroke: #ffffff; stroke-width: 0.4; stroke-linejoin: miter"/>
   </g>
   <g id="patch_68">
    <path d="M 458.430681 137.095329
L 463.745023 137.095329
L 463.745023 145.794782
L 458.430681 145.794782
z
" clip-path="url(#pa14e9439d9)" style="fill: #2166ac; stroke: #ffffff; stroke-width: 0.4; stroke-linejoin: miter"/>
   </g>
   <g id="patch_69">
    <path d="M 415.915939 147.969645
L 394.658569 147.969645
L 394.658569 156.669097
L 415.915939 156.669097
z
" clip-path="url(#pa14e9439d9)" style="fill: #fddbc7; stroke: #ffffff; stroke-width: 0.4; stroke-linejoin: miter"/>
   </g>
   <g id="patch_70">
    <path d="M 394.658569 147.969645
L 373.401198 147.969645
L 373.401198 156.669097
L 394.658569 156.669097
z
" clip-path="url(#pa14e9439d9)" style="fill: #ef8a62; stroke: #ffffff; stroke-width: 0.4; stroke-linejoin: miter"/>
   </g>
   <g id="patch_71">
    <path d="M 373.401198 147.969645
L 357.45817 147.969645
L 357.45817 156.669097
L 373.401198 156.669097
z
" clip-path="url(#pa14e9439d9)" style="fill: #b2182b; stroke: #ffffff; stroke-width: 0.4; stroke-linejoin: miter"/>
   </g>
   <g id="patch_72">
    <path d="M 415.915939 147.969645
L 437.17331 147.969645
L 437.17331 156.669097
L 415.915939 156.669097
z
" clip-path="url(#pa14e9439d9)" style="fill: #d1e5f0; stroke: #ffffff; stroke-width: 0.4; stroke-linejoin: miter"/>
   </g>
   <g id="patch_73">
    <path d="M 437.17331 147.969645
L 522.202793 147.969645
L 522.202793 156.669097
L 437.17331 156.669097
z
" clip-path="url(#pa14e9439d9)" style="fill: #67a9cf; stroke: #ffffff; stroke-width: 0.4; stroke-linejoin: miter"/>
   </g>
   <g id="patch_74">
    <path d="M 522.202793 147.969645
L 580.660562 147.969645
L 580.660562 156.669097
L 522.202793 156.669097
z
" clip-path="url(#pa14e9439d9)" style="fill: #2166ac; stroke: #ffffff; stroke-width: 0.4; stroke-linejoin: miter"/>
   </g>
   <g id="line2d_21">
    <path d="M 415.915939 163.084943
L 415.915939 21.936328
" clip-path="url(#pa14e9439d9)" style="fill: none; stroke: #4c4c4c; stroke-width: 0.7; stroke-linecap: round"/>
   </g>
   <g id="patch_75">
    <path d="M 215.830937 163.084943
L 215.830937 21.936328
" style="fill: none; stroke: #cccccc; stroke-width: 1.25; stroke-linejoin: miter; stroke-linecap: square"/>
   </g>
   <g id="patch_76">
    <path d="M 215.830937 163.084943
L 642.572654 163.084943
" style="fill: none; stroke: #cccccc; stroke-width: 1.25; stroke-linejoin: miter; stroke-linecap: square"/>
   </g>
   <g id="text_22">
    <text style="font-weight: 700; font-size: 12px; font-family: 'Arial', 'DejaVu Sans', 'Liberation Sans', 'Bitstream Vera Sans', sans-serif; text-anchor: middle; fill: #262626" x="429.201796" y="15.936328" transform="rotate(-0 429.201796 15.936328)">Spatial-awareness item distributions</text>
   </g>
   <g id="legend_1">
    <g id="patch_77">
     <path d="M 261.250702 229.876655
L 597.15289 229.876655
Q 599.35289 229.876655 599.35289 227.676655
L 599.35289 196.191694
Q 599.35289 193.991694 597.15289 193.991694
L 261.250702 193.991694
Q 259.050702 193.991694 259.050702 196.191694
L 259.050702 227.676655
Q 259.050702 229.876655 261.250702 229.876655
z
" style="fill: #ffffff; opacity: 0.8; stroke: #cccccc; stroke-linejoin: miter"/>
    </g>
    <g id="text_23">
     <text style="font-size: 12px; font-family: 'Arial', 'DejaVu Sans', 'Liberation Sans', 'Bitstream Vera Sans', sans-serif; text-anchor: start; fill: #262626" x="402.185858" y="207.128022" transform="rotate(-0 402.185858 207.128022)">Response</text>
    </g>
    <g id="patch_78">
     <path d="M 263.450702 223.161714
L 285.450702 223.161714
L 285.450702 215.461714
L 263.450702 215.461714
z
" style="fill: #b2182b; stroke: #b2182b; stroke-linejoin: miter"/>
    </g>
    <g id="text_24">
     <text style="font-size: 11px; font-family: 'Arial', 'DejaVu Sans', 'Liberation Sans', 'Bitstream Vera Sans', sans-serif; text-anchor: start; fill: #262626" x="294.250702" y="223.161714" transform="rotate(-0 294.250702 223.161714)">1</text>
    </g>
    <g id="patch_79">
     <path d="M 322.367733 223.161714
L 344.367733 223.161714
L 344.367733 215.461714
L 322.367733 215.461714
z
" style="fill: #ef8a62; stroke: #ef8a62; stroke-linejoin: miter"/>
    </g>
    <g id="text_25">
     <text style="font-size: 11px; font-family: 'Arial', 'DejaVu Sans', 'Liberation Sans', 'Bitstream Vera Sans', sans-serif; text-anchor: start; fill: #262626" x="353.167733" y="223.161714" transform="rotate(-0 353.167733 223.161714)">2</text>
    </g>
    <g id="patch_80">
     <path d="M 381.284765 223.161714
L 403.284765 223.161714
L 403.284765 215.461714
L 381.284765 215.461714
z
" style="fill: #fddbc7; stroke: #fddbc7; stroke-linejoin: miter"/>
    </g>
    <g id="text_26">
     <text style="font-size: 11px; font-family: 'Arial', 'DejaVu Sans', 'Liberation Sans', 'Bitstream Vera Sans', sans-serif; text-anchor: start; fill: #262626" x="412.084765" y="223.161714" transform="rotate(-0 412.084765 223.161714)">3</text>
    </g>
    <g id="patch_81">
     <path d="M 440.201796 223.161714
L 462.201796 223.161714
L 462.201796 215.461714
L 440.201796 215.461714
z
" style="fill: #d1e5f0; stroke: #d1e5f0; stroke-linejoin: miter"/>
    </g>
    <g id="text_27">
     <text style="font-size: 11px; font-family: 'Arial', 'DejaVu Sans', 'Liberation Sans', 'Bitstream Vera Sans', sans-serif; text-anchor: start; fill: #262626" x="471.001796" y="223.161714" transform="rotate(-0 471.001796 223.161714)">4</text>
    </g>
    <g id="patch_82">
     <path d="M 499.118827 223.161714
L 521.118827 223.161714
L 521.118827 215.461714
L 499.118827 215.461714
z
" style="fill: #67a9cf; stroke: #67a9cf; stroke-linejoin: miter"/>
    </g>
    <g id="text_28">
     <text style="font-size: 11px; font-family: 'Arial', 'DejaVu Sans', 'Liberation Sans', 'Bitstream Vera Sans', sans-serif; text-anchor: start; fill: #262626" x="529.918827" y="223.161714" transform="rotate(-0 529.918827 223.161714)">5</text>
    </g>
    <g id="patch_83">
     <path d="M 558.035858 223.161714
L 580.035858 223.161714
L 580.035858 215.461714
L 558.035858 215.461714
z
" style="fill: #2166ac; stroke: #2166ac; stroke-linejoin: miter"/>
    </g>
    <g id="text_29">
     <text style="font-size: 11px; font-family: 'Arial', 'DejaVu Sans', 'Liberation Sans', 'Bitstream Vera Sans', sans-serif; text-anchor: start; fill: #262626" x="588.835858" y="223.161714" transform="rotate(-0 588.835858 223.161714)">6</text>
    </g>
   </g>
  </g>
 </g>
 <defs>
  <clipPath id="pa14e9439d9">
   <rect x="215.830937" y="21.936328" width="426.741717" height="141.148615"/>
  </clipPath>
 </defs>
</svg>
