<?xml version="1.0" encoding="utf-8" standalone="no"?>
<!DOCTYPE svg PUBLIC "-//W3C//DTD SVG 1.1//EN"
  "http://www.w3.org/Graphics/SVG/1.1/DTD/svg11.dtd">
<svg xmlns:xlink="http://www.w3.org/1999/xlink" width="657.056976pt" height="237.076655pt" viewBox="0 0 657.056976 237.076655" xmlns="http://www.w3.org/2000/svg" version="1.1">
 <metadata>
  <rdf:RDF xmlns:dc="http://purl.org/dc/elements/1.1/" xmlns:cc="http://creativecommons.org/ns#" xmlns:rdf="http://www.w3.org/1999/02/22-rdf-syntax-ns#">
   <cc:Work>
    <dc:type rdf:resource="http://purl.org/dc/dcmitype/StillImage"/>
    <dc:date>2026-08-28T09:38:56.223683</dc:date>
    <dc:format>image/svg+xml</dc:format>
    <dc:creator>
     <cc:Agent>
      <dc:title>Matplotlib v3.11.1, https://matplotlib.org/</dc:title>
     </cc:Agent>
    </dc:creator>
   </cc:Work>
  </rdf:RDF>
 </metadata>
 <defs>
  <style type="text/css">*{stroke-linejoin: round; stroke-linecap: butt}</style>
 </defs>
 <g id="figure_1">
  <g id="patch_1">
   <path d="M 0 237.076655
L 657.056976 237.076655
L 657.056976 0
L 0 0
z
" style="fill: #ffffff"/>
  </g>
  <g id="axes_1">
   <g id="patch_2">
    <path d="M 246.58625 163.084943
L 646.744432 163.084943
L 646.744432 21.936328
L 246.58625 21.936328
z
" style="fill: #ffffff"/>
   </g>
   <g id="matplotlib.axis_1">
    <g id="xtick_1">
     <g id="line2d_1">
      <path d="M 284.176867 163.084943
L 284.176867 21.936328
" clip-path="url(#pe68dfadd28)" style="fill: none; stroke: #cccccc; stroke-linecap: round"/>
     </g>
     <g id="text_1">
      <text style="font-size: 11px; font-family: 'Arial', 'DejaVu Sans', 'Liberation Sans', 'Bitstream Vera Sans', sans-serif; text-anchor: middle; fill: #262626" x="284.176867" y="180.593244" transform="rotate(-0 284.176867 180.593244)">−40</text>
     </g>
    </g>
    <g id="xtick_2">
     <g id="line2d_2">
      <path d="M 335.10609 163.084943
L 335.10609 21.936328
" clip-path="url(#pe68dfadd28)" style="fill: none; stroke: #cccccc; stroke-linecap: round"/>
     </g>
     <g id="text_2">
      <text style="font-size: 11px; font-family: 'Arial', 'DejaVu Sans', 'Liberation Sans', 'Bitstream Vera Sans', sans-serif; text-anchor: middle; fill: #262626" x="335.10609" y="180.593244" transform="rotate(-0 335.10609 180.593244)">−20</text>
     </g>
    </g>
    <g id="xtick_3">
     <g id="line2d_3">
      <path d="M 386.035313 163.084943
L 386.035313 21.936328
" clip-path="url(#pe68dfadd28)" style="fill: none; stroke: #cccccc; stroke-linecap: round"/>
     </g>
     <g id="text_3">
      <text style="font-size: 11px; font-family: 'Arial', 'DejaVu Sans', 'Liberation Sans', 'Bitstream Vera Sans', sans-serif; text-anchor: middle; fill: #262626" x="386.035313" y="180.593244" transform="rotate(-0 386.035313 180.593244)">0</text>
     </g>
    </g>
    <g id="xtick_4">
     <g id="line2d_4">
      <path d="M 436.964537 163.084943
L 436.964537 21.936328
" clip-path="url(#pe68dfadd28)" style="fill: none; stroke: #cccccc; stroke-linecap: round"/>
     </g>
     <g id="text_4">
      <text style="font-size: 11px; font-family: 'Arial', 'DejaVu Sans', 'Liberation Sans', 'Bitstream Vera Sans', sans-serif; text-anchor: middle; fill: #262626" x="436.964537" y="180.593244" transform="rotate(-0 436.964537 180.593244)">20</text>
     </g>
    </g>
    <g id="xtick_5">
     <g id="line2d_5">
      <path d="M 487.89376 163.084943
L 487.89376 21.936328
" clip-path="url(#pe68dfadd28)" style="fill: none; stroke: #cccccc; stroke-linecap: round"/>
     </g>
     <g id="text_5">
      <text style="font-size: 11px; font-family: 'Arial', 'DejaVu Sans', 'Liberation Sans', 'Bitstream Vera Sans', sans-serif; text-anchor: middle; fill: #262626" x="487.89376" y="180.593244" transform="rotate(-0 487.89376 180.593244)">40</text>
     </g>
    </g>
    <g id="xtick_6">
     <g id="line2d_6">
      <path d="M 538.822983 163.084943
L 538.822983 21.936328
" clip-path="url(#pe68dfadd28)" style="fill: none; stroke: #cccccc; stroke-linecap: round"/>
     </g>
     <g id="text_6">
      <text style="font-size: 11px; font-family: 'Arial', 'DejaVu Sans', 'Liberation Sans', 'Bitstream Vera Sans', sans-serif; text-anchor: middle; fill: #262626" x="538.822983" y="180.593244" transform="rotate(-0 538.822983 180.593244)">60</text>
     </g>
    </g>
    <g id="xtick_7">
     <g id="line2d_7">
      <path d="M 589.752206 163.084943
L 589.752206 21.936328
" clip-path="url(#pe68dfadd28)" style="fill: none; stroke: #cccccc; stroke-linecap: round"/>
     </g>
     <g id="text_7">
      <text style="font-size: 11px; font-family: 'Arial', 'DejaVu Sans', 'Liberation Sans', 'Bitstream Vera Sans', sans-serif; text-anchor: middle; fill: #262626" x="589.752206" y="180.593244" transform="rotate(-0 589.752206 180.593244)">80</text>
     </g>
    </g>
    <g id="xtick_8">
     <g id="line2d_8">
      <path d="M 640.681429 163.084943
L 640.681429 21.936328
" clip-path="url(#pe68dfadd28)" style="fill: none; stroke: #cccccc; stroke-linecap: round"/>
     </g>
     <g id="text_8">
      <text style="font-size: 11px; font-family: 'Arial', 'DejaVu Sans', 'Liberation Sans', 'Bitstream Vera Sans', sans-serif; text-anchor: middle; fill: #262626" x="640.681429" y="180.593244" transform="rotate(-0 640.681429 180.593244)">100</text>
     </g>
    </g>
    <g id="text_9">
     <text style="font-size: 12px; font-family: 'Arial', 'DejaVu Sans', 'Liberation Sans', 'Bitstream Vera Sans', sans-serif; text-anchor: middle; fill: #262626" x="446.665341" y="195.644514" transform="rotate(-0 446.665341 195.644514)">Percentage (1–3 disagree; 4–6 agree)</text>
    </g>
   </g>
   <g id="matplotlib.axis_2">
    <g id="ytick_1">
     <g id="line2d_9">
      <path d="M 246.58625 32.7019
L 646.744432 32.7019
" clip-path="url(#pe68dfadd28)" style="fill: none; stroke: #cccccc; stroke-linecap: round"/>
     </g>
     <g id="text_10">
      <text style="font-size: 11px; font-family: 'Arial', 'DejaVu Sans', 'Liberation Sans', 'Bitstream Vera Sans', sans-serif; text-anchor: end; fill: #262626" x="237.08625" y="36.706051" transform="rotate(-0 237.08625 36.706051)">Baseline — Environmental distance awareness</text>
     </g>
    </g>
    <g id="ytick_2">
     <g id="line2d_10">
      <path d="M 246.58625 43.576216
L 646.744432 43.576216
" clip-path="url(#pe68dfadd28)" style="fill: none; stroke: #cccccc; stroke-linecap: round"/>
     </g>
     <g id="text_11">
      <text style="font-size: 11px; font-family: 'Arial', 'DejaVu Sans', 'Liberation Sans', 'Bitstream Vera Sans', sans-serif; text-anchor: end; fill: #262626" x="237.08625" y="47.580366" transform="rotate(-0 237.08625 47.580366)">Baseline — Destination distance awareness</text>
     </g>
    </g>
    <g id="ytick_3">
     <g id="line2d_11">
      <path d="M 246.58625 54.450531
L 646.744432 54.450531
" clip-path="url(#pe68dfadd28)" style="fill: none; stroke: #cccccc; stroke-linecap: round"/>
     </g>
     <g id="text_12">
      <text style="font-size: 11px; font-family: 'Arial', 'DejaVu Sans', 'Liberation Sans', 'Bitstream Vera Sans', sans-serif; text-anchor: end; fill: #262626" x="237.08625" y="58.454682" transform="rotate(-0 237.08625 58.454682)">Baseline — Easy to learn</text>
     </g>
    </g>
    <g id="ytick_4">
     <g id="line2d_12">
      <path d="M 246.58625 65.324847
L 646.744432 65.324847
" clip-path="url(#pe68dfadd28)" style="fill: none; stroke: #cccccc; stroke-linecap: round"/>
     </g>
     <g id="text_13">
      <text style="font-size: 11px; font-family: 'Arial', 'DejaVu Sans', 'Liberation Sans', 'Bitstream Vera Sans', sans-serif; text-anchor: end; fill: #262626" x="237.08625" y="69.328997" transform="rotate(-0 237.08625 69.328997)">Baseline — Intuitive to use</text>
     </g>
    </g>
    <g id="ytick_5">
     <g id="line2d_13">
      <path d="M 246.58625 76.199162
L 646.744432 76.199162
" clip-path="url(#pe68dfadd28)" style="fill: none; stroke: #cccccc; stroke-linecap: round"/>
     </g>
     <g id="text_14">
      <text style="font-size: 11px; font-family: 'Arial', 'DejaVu Sans', 'Liberation Sans', 'Bitstream Vera Sans', sans-serif; text-anchor: end; fill: #262626" x="237.08625" y="80.203313" transform="rotate(-0 237.08625 80.203313)">Minimap — Environmental distance awareness</text>
     </g>
    </g>
    <g id="ytick_6">
     <g id="line2d_14">
      <path d="M 246.58625 87.073478
L 646.744432 87.073478
" clip-path="url(#pe68dfadd28)" style="fill: none; stroke: #cccccc; stroke-linecap: round"/>
     </g>
     <g id="text_15">
      <text style="font-size: 11px; font-family: 'Arial', 'DejaVu Sans', 'Liberation Sans', 'Bitstream Vera Sans', sans-serif; text-anchor: end; fill: #262626" x="237.08625" y="91.077628" transform="rotate(-0 237.08625 91.077628)">Minimap — Destination distance awareness</text>
     </g>
    </g>
    <g id="ytick_7">
     <g id="line2d_15">
      <path d="M 246.58625 97.947793
L 646.744432 97.947793
" clip-path="url(#pe68dfadd28)" style="fill: none; stroke: #cccccc; stroke-linecap: round"/>
     </g>
     <g id="text_16">
      <text style="font-size: 11px; font-family: 'Arial', 'DejaVu Sans', 'Liberation Sans', 'Bitstream Vera Sans', sans-serif; text-anchor: end; fill: #262626" x="237.08625" y="101.951944" transform="rotate(-0 237.08625 101.951944)">Minimap — Easy to learn</text>
     </g>
    </g>
    <g id="ytick_8">
     <g id="line2d_16">
      <path d="M 246.58625 108.822109
L 646.744432 108.822109
" clip-path="url(#pe68dfadd28)" style="fill: none; stroke: #cccccc; stroke-linecap: round"/>
     </g>
     <g id="text_17">
      <text style="font-size: 11px; font-family: 'Arial', 'DejaVu Sans', 'Liberation Sans', 'Bitstream Vera Sans', sans-serif; text-anchor: end; fill: #262626" x="237.08625" y="112.826259" transform="rotate(-0 237.08625 112.826259)">Minimap — Intuitive to use</text>
     </g>
    </g>
    <g id="ytick_9">
     <g id="line2d_17">
      <path d="M 246.58625 119.696424
L 646.744432 119.696424
" clip-path="url(#pe68dfadd28)" style="fill: none; stroke: #cccccc; stroke-linecap: round"/>
     </g>
     <g id="text_18">
      <text style="font-size: 11px; font-family: 'Arial', 'DejaVu Sans', 'Liberation Sans', 'Bitstream Vera Sans', sans-serif; text-anchor: end; fill: #262626" x="237.08625" y="123.700575" transform="rotate(-0 237.08625 123.700575)">Tsunami — Environmental distance awareness</text>
     </g>
    </g>
    <g id="ytick_10">
     <g id="line2d_18">
      <path d="M 246.58625 130.57074
L 646.744432 130.57074
" clip-path="url(#pe68dfadd28)" style="fill: none; stroke: #cccccc; stroke-linecap: round"/>
     </g>
     <g id="text_19">
      <text style="font-size: 11px; font-family: 'Arial', 'DejaVu Sans', 'Liberation Sans', 'Bitstream Vera Sans', sans-serif; text-anchor: end; fill: #262626" x="237.08625" y="134.57489" transform="rotate(-0 237.08625 134.57489)">Tsunami — Destination distance awareness</text>
     </g>
    </g>
    <g id="ytick_11">
     <g id="line2d_19">
      <path d="M 246.58625 141.445055
L 646.744432 141.445055
" clip-path="url(#pe68dfadd28)" style="fill: none; stroke: #cccccc; stroke-linecap: round"/>
     </g>
     <g id="text_20">
      <text style="font-size: 11px; font-family: 'Arial', 'DejaVu Sans', 'Liberation Sans', 'Bitstream Vera Sans', sans-serif; text-anchor: end; fill: #262626" x="237.08625" y="145.449206" transform="rotate(-0 237.08625 145.449206)">Tsunami — Easy to learn</text>
     </g>
    </g>
    <g id="ytick_12">
     <g id="line2d_20">
      <path d="M 246.58625 152.319371
L 646.744432 152.319371
" clip-path="url(#pe68dfadd28)" style="fill: none; stroke: #cccccc; stroke-linecap: round"/>
     </g>
     <g id="text_21">
      <text style="font-size: 11px; font-family: 'Arial', 'DejaVu Sans', 'Liberation Sans', 'Bitstream Vera Sans', sans-serif; text-anchor: end; fill: #262626" x="237.08625" y="156.323521" transform="rotate(-0 237.08625 156.323521)">Tsunami — Intuitive to use</text>
     </g>
    </g>
   </g>
   <g id="patch_3">
    <path d="M 386.035313 28.352174
L 373.909308 28.352174
L 373.909308 37.051627
L 386.035313 37.051627
z
" clip-path="url(#pe68dfadd28)" style="fill: #fddbc7; stroke: #ffffff; stroke-width: 0.4; stroke-linejoin: miter"/>
   </g>
   <g id="patch_4">
    <path d="M 373.909308 28.352174
L 325.405286 28.352174
L 325.405286 37.051627
L 373.909308 37.051627
z
" clip-path="url(#pe68dfadd28)" style="fill: #ef8a62; stroke: #ffffff; stroke-width: 0.4; stroke-linejoin: miter"/>
   </g>
   <g id="patch_5">
    <path d="M 325.405286 28.352174
L 313.27928 28.352174
L 313.27928 37.051627
L 325.405286 37.051627
z
" clip-path="url(#pe68dfadd28)" style="fill: #b2182b; stroke: #ffffff; stroke-width: 0.4; stroke-linejoin: miter"/>
   </g>
   <g id="patch_6">
    <path d="M 386.035313 28.352174
L 464.854349 28.352174
L 464.854349 37.051627
L 386.035313 37.051627
z
" clip-path="url(#pe68dfadd28)" style="fill: #d1e5f0; stroke: #ffffff; stroke-width: 0.4; stroke-linejoin: miter"/>
   </g>
   <g id="patch_7">
    <path d="M 464.854349 28.352174
L 525.484377 28.352174
L 525.484377 37.051627
L 464.854349 37.051627
z
" clip-path="url(#pe68dfadd28)" style="fill: #67a9cf; stroke: #ffffff; stroke-width: 0.4; stroke-linejoin: miter"/>
   </g>
   <g id="patch_8">
    <path d="M 525.484377 28.352174
L 567.925396 28.352174
L 567.925396 37.051627
L 525.484377 37.051627
z
" clip-path="url(#pe68dfadd28)" style="fill: #2166ac; stroke: #ffffff; stroke-width: 0.4; stroke-linejoin: miter"/>
   </g>
   <g id="patch_9">
    <path d="M 386.035313 39.22649
L 367.846305 39.22649
L 367.846305 47.925942
L 386.035313 47.925942
z
" clip-path="url(#pe68dfadd28)" style="fill: #fddbc7; stroke: #ffffff; stroke-width: 0.4; stroke-linejoin: miter"/>
   </g>
   <g id="patch_10">
    <path d="M 367.846305 39.22649
L 343.594294 39.22649
L 343.594294 47.925942
L 367.846305 47.925942
z
" clip-path="url(#pe68dfadd28)" style="fill: #ef8a62; stroke: #ffffff; stroke-width: 0.4; stroke-linejoin: miter"/>
   </g>
   <g id="patch_11">
    <path d="M 343.594294 39.22649
L 307.216278 39.22649
L 307.216278 47.925942
L 343.594294 47.925942
z
" clip-path="url(#pe68dfadd28)" style="fill: #b2182b; stroke: #ffffff; stroke-width: 0.4; stroke-linejoin: miter"/>
   </g>
   <g id="patch_12">
    <path d="M 386.035313 39.22649
L 470.917352 39.22649
L 470.917352 47.925942
L 386.035313 47.925942
z
" clip-path="url(#pe68dfadd28)" style="fill: #d1e5f0; stroke: #ffffff; stroke-width: 0.4; stroke-linejoin: miter"/>
   </g>
   <g id="patch_13">
    <path d="M 470.917352 39.22649
L 519.421374 39.22649
L 519.421374 47.925942
L 470.917352 47.925942
z
" clip-path="url(#pe68dfadd28)" style="fill: #67a9cf; stroke: #ffffff; stroke-width: 0.4; stroke-linejoin: miter"/>
   </g>
   <g id="patch_14">
    <path d="M 519.421374 39.22649
L 561.862393 39.22649
L 561.862393 47.925942
L 519.421374 47.925942
z
" clip-path="url(#pe68dfadd28)" style="fill: #2166ac; stroke: #ffffff; stroke-width: 0.4; stroke-linejoin: miter"/>
   </g>
   <g id="patch_15">
    <path d="M 386.035313 50.100805
L 379.972311 50.100805
L 379.972311 58.800258
L 386.035313 58.800258
z
" clip-path="url(#pe68dfadd28)" style="fill: #fddbc7; stroke: #ffffff; stroke-width: 0.4; stroke-linejoin: miter"/>
   </g>
   <g id="patch_16">
    <path d="M 379.972311 50.100805
L 379.972311 50.100805
L 379.972311 58.800258
L 379.972311 58.800258
z
" clip-path="url(#pe68dfadd28)" style="fill: #ef8a62; stroke: #ffffff; stroke-width: 0.4; stroke-linejoin: miter"/>
   </g>
   <g id="patch_17">
    <path d="M 379.972311 50.100805
L 373.909308 50.100805
L 373.909308 58.800258
L 379.972311 58.800258
z
" clip-path="url(#pe68dfadd28)" style="fill: #b2182b; stroke: #ffffff; stroke-width: 0.4; stroke-linejoin: miter"/>
   </g>
   <g id="patch_18">
    <path d="M 386.035313 50.100805
L 392.098316 50.100805
L 392.098316 58.800258
L 386.035313 58.800258
z
" clip-path="url(#pe68dfadd28)" style="fill: #d1e5f0; stroke: #ffffff; stroke-width: 0.4; stroke-linejoin: miter"/>
   </g>
   <g id="patch_19">
    <path d="M 392.098316 50.100805
L 440.602338 50.100805
L 440.602338 58.800258
L 392.098316 58.800258
z
" clip-path="url(#pe68dfadd28)" style="fill: #67a9cf; stroke: #ffffff; stroke-width: 0.4; stroke-linejoin: miter"/>
   </g>
   <g id="patch_20">
    <path d="M 440.602338 50.100805
L 628.555424 50.100805
L 628.555424 58.800258
L 440.602338 58.800258
z
" clip-path="url(#pe68dfadd28)" style="fill: #2166ac; stroke: #ffffff; stroke-width: 0.4; stroke-linejoin: miter"/>
   </g>
   <g id="patch_21">
    <path d="M 386.035313 60.975121
L 379.972311 60.975121
L 379.972311 69.674573
L 386.035313 69.674573
z
" clip-path="url(#pe68dfadd28)" style="fill: #fddbc7; stroke: #ffffff; stroke-width: 0.4; stroke-linejoin: miter"/>
   </g>
   <g id="patch_22">
    <path d="M 379.972311 60.975121
L 379.972311 60.975121
L 379.972311 69.674573
L 379.972311 69.674573
z
" clip-path="url(#pe68dfadd28)" style="fill: #ef8a62; stroke: #ffffff; stroke-width: 0.4; stroke-linejoin: miter"/>
   </g>
   <g id="patch_23">
    <path d="M 379.972311 60.975121
L 373.909308 60.975121
L 373.909308 69.674573
L 379.972311 69.674573
z
" clip-path="url(#pe68dfadd28)" style="fill: #b2182b; stroke: #ffffff; stroke-width: 0.4; stroke-linejoin: miter"/>
   </g>
   <g id="patch_24">
    <path d="M 386.035313 60.975121
L 404.224322 60.975121
L 404.224322 69.674573
L 386.035313 69.674573
z
" clip-path="url(#pe68dfadd28)" style="fill: #d1e5f0; stroke: #ffffff; stroke-width: 0.4; stroke-linejoin: miter"/>
   </g>
   <g id="patch_25">
    <path d="M 404.224322 60.975121
L 446.665341 60.975121
L 446.665341 69.674573
L 404.224322 69.674573
z
" clip-path="url(#pe68dfadd28)" style="fill: #67a9cf; stroke: #ffffff; stroke-width: 0.4; stroke-linejoin: miter"/>
   </g>
   <g id="patch_26">
    <path d="M 446.665341 60.975121
L 628.555424 60.975121
L 628.555424 69.674573
L 446.665341 69.674573
z
" clip-path="url(#pe68dfadd28)" style="fill: #2166ac; stroke: #ffffff; stroke-width: 0.4; stroke-linejoin: miter"/>
   </g>
   <g id="patch_27">
    <path d="M 386.035313 71.849436
L 337.531291 71.849436
L 337.531291 80.548889
L 386.035313 80.548889
z
" clip-path="url(#pe68dfadd28)" style="fill: #fddbc7; stroke: #ffffff; stroke-width: 0.4; stroke-linejoin: miter"/>
   </g>
   <g id="patch_28">
    <path d="M 337.531291 71.849436
L 289.027269 71.849436
L 289.027269 80.548889
L 337.531291 80.548889
z
" clip-path="url(#pe68dfadd28)" style="fill: #ef8a62; stroke: #ffffff; stroke-width: 0.4; stroke-linejoin: miter"/>
   </g>
   <g id="patch_29">
    <path d="M 289.027269 71.849436
L 264.775258 71.849436
L 264.775258 80.548889
L 289.027269 80.548889
z
" clip-path="url(#pe68dfadd28)" style="fill: #b2182b; stroke: #ffffff; stroke-width: 0.4; stroke-linejoin: miter"/>
   </g>
   <g id="patch_30">
    <path d="M 386.035313 71.849436
L 416.350327 71.849436
L 416.350327 80.548889
L 386.035313 80.548889
z
" clip-path="url(#pe68dfadd28)" style="fill: #d1e5f0; stroke: #ffffff; stroke-width: 0.4; stroke-linejoin: miter"/>
   </g>
   <g id="patch_31">
    <path d="M 416.350327 71.849436
L 501.232366 71.849436
L 501.232366 80.548889
L 416.350327 80.548889
z
" clip-path="url(#pe68dfadd28)" style="fill: #67a9cf; stroke: #ffffff; stroke-width: 0.4; stroke-linejoin: miter"/>
   </g>
   <g id="patch_32">
    <path d="M 501.232366 71.849436
L 519.421374 71.849436
L 519.421374 80.548889
L 501.232366 80.548889
z
" clip-path="url(#pe68dfadd28)" style="fill: #2166ac; stroke: #ffffff; stroke-width: 0.4; stroke-linejoin: miter"/>
   </g>
   <g id="patch_33">
    <path d="M 386.035313 82.723752
L 361.783302 82.723752
L 361.783302 91.423204
L 386.035313 91.423204
z
" clip-path="url(#pe68dfadd28)" style="fill: #fddbc7; stroke: #ffffff; stroke-width: 0.4; stroke-linejoin: miter"/>
   </g>
   <g id="patch_34">
    <path d="M 361.783302 82.723752
L 307.216278 82.723752
L 307.216278 91.423204
L 361.783302 91.423204
z
" clip-path="url(#pe68dfadd28)" style="fill: #ef8a62; stroke: #ffffff; stroke-width: 0.4; stroke-linejoin: miter"/>
   </g>
   <g id="patch_35">
    <path d="M 307.216278 82.723752
L 289.027269 82.723752
L 289.027269 91.423204
L 307.216278 91.423204
z
" clip-path="url(#pe68dfadd28)" style="fill: #b2182b; stroke: #ffffff; stroke-width: 0.4; stroke-linejoin: miter"/>
   </g>
   <g id="patch_36">
    <path d="M 386.035313 82.723752
L 434.539335 82.723752
L 434.539335 91.423204
L 386.035313 91.423204
z
" clip-path="url(#pe68dfadd28)" style="fill: #d1e5f0; stroke: #ffffff; stroke-width: 0.4; stroke-linejoin: miter"/>
   </g>
   <g id="patch_37">
    <path d="M 434.539335 82.723752
L 501.232366 82.723752
L 501.232366 91.423204
L 434.539335 91.423204
z
" clip-path="url(#pe68dfadd28)" style="fill: #67a9cf; stroke: #ffffff; stroke-width: 0.4; stroke-linejoin: miter"/>
   </g>
   <g id="patch_38">
    <path d="M 501.232366 82.723752
L 543.673385 82.723752
L 543.673385 91.423204
L 501.232366 91.423204
z
" clip-path="url(#pe68dfadd28)" style="fill: #2166ac; stroke: #ffffff; stroke-width: 0.4; stroke-linejoin: miter"/>
   </g>
   <g id="patch_39">
    <path d="M 386.035313 93.598067
L 379.972311 93.598067
L 379.972311 102.29752
L 386.035313 102.29752
z
" clip-path="url(#pe68dfadd28)" style="fill: #fddbc7; stroke: #ffffff; stroke-width: 0.4; stroke-linejoin: miter"/>
   </g>
   <g id="patch_40">
    <path d="M 379.972311 93.598067
L 355.7203 93.598067
L 355.7203 102.29752
L 379.972311 102.29752
z
" clip-path="url(#pe68dfadd28)" style="fill: #ef8a62; stroke: #ffffff; stroke-width: 0.4; stroke-linejoin: miter"/>
   </g>
   <g id="patch_41">
    <path d="M 355.7203 93.598067
L 349.657297 93.598067
L 349.657297 102.29752
L 355.7203 102.29752
z
" clip-path="url(#pe68dfadd28)" style="fill: #b2182b; stroke: #ffffff; stroke-width: 0.4; stroke-linejoin: miter"/>
   </g>
   <g id="patch_42">
    <path d="M 386.035313 93.598067
L 428.476333 93.598067
L 428.476333 102.29752
L 386.035313 102.29752
z
" clip-path="url(#pe68dfadd28)" style="fill: #d1e5f0; stroke: #ffffff; stroke-width: 0.4; stroke-linejoin: miter"/>
   </g>
   <g id="patch_43">
    <path d="M 428.476333 93.598067
L 489.10636 93.598067
L 489.10636 102.29752
L 428.476333 102.29752
z
" clip-path="url(#pe68dfadd28)" style="fill: #67a9cf; stroke: #ffffff; stroke-width: 0.4; stroke-linejoin: miter"/>
   </g>
   <g id="patch_44">
    <path d="M 489.10636 93.598067
L 604.303413 93.598067
L 604.303413 102.29752
L 489.10636 102.29752
z
" clip-path="url(#pe68dfadd28)" style="fill: #2166ac; stroke: #ffffff; stroke-width: 0.4; stroke-linejoin: miter"/>
   </g>
   <g id="patch_45">
    <path d="M 386.035313 104.472383
L 355.7203 104.472383
L 355.7203 113.171835
L 386.035313 113.171835
z
" clip-path="url(#pe68dfadd28)" style="fill: #fddbc7; stroke: #ffffff; stroke-width: 0.4; stroke-linejoin: miter"/>
   </g>
   <g id="patch_46">
    <path d="M 355.7203 104.472383
L 325.405286 104.472383
L 325.405286 113.171835
L 355.7203 113.171835
z
" clip-path="url(#pe68dfadd28)" style="fill: #ef8a62; stroke: #ffffff; stroke-width: 0.4; stroke-linejoin: miter"/>
   </g>
   <g id="patch_47">
    <path d="M 325.405286 104.472383
L 307.216278 104.472383
L 307.216278 113.171835
L 325.405286 113.171835
z
" clip-path="url(#pe68dfadd28)" style="fill: #b2182b; stroke: #ffffff; stroke-width: 0.4; stroke-linejoin: miter"/>
   </g>
   <g id="patch_48">
    <path d="M 386.035313 104.472383
L 452.728344 104.472383
L 452.728344 113.171835
L 386.035313 113.171835
z
" clip-path="url(#pe68dfadd28)" style="fill: #d1e5f0; stroke: #ffffff; stroke-width: 0.4; stroke-linejoin: miter"/>
   </g>
   <g id="patch_49">
    <path d="M 452.728344 104.472383
L 489.10636 104.472383
L 489.10636 113.171835
L 452.728344 113.171835
z
" clip-path="url(#pe68dfadd28)" style="fill: #67a9cf; stroke: #ffffff; stroke-width: 0.4; stroke-linejoin: miter"/>
   </g>
   <g id="patch_50">
    <path d="M 489.10636 104.472383
L 561.862393 104.472383
L 561.862393 113.171835
L 489.10636 113.171835
z
" clip-path="url(#pe68dfadd28)" style="fill: #2166ac; stroke: #ffffff; stroke-width: 0.4; stroke-linejoin: miter"/>
   </g>
   <g id="patch_51">
    <path d="M 386.035313 115.346698
L 355.7203 115.346698
L 355.7203 124.046151
L 386.035313 124.046151
z
" clip-path="url(#pe68dfadd28)" style="fill: #fddbc7; stroke: #ffffff; stroke-width: 0.4; stroke-linejoin: miter"/>
   </g>
   <g id="patch_52">
    <path d="M 355.7203 115.346698
L 343.594294 115.346698
L 343.594294 124.046151
L 355.7203 124.046151
z
" clip-path="url(#pe68dfadd28)" style="fill: #ef8a62; stroke: #ffffff; stroke-width: 0.4; stroke-linejoin: miter"/>
   </g>
   <g id="patch_53">
    <path d="M 343.594294 115.346698
L 331.468289 115.346698
L 331.468289 124.046151
L 343.594294 124.046151
z
" clip-path="url(#pe68dfadd28)" style="fill: #b2182b; stroke: #ffffff; stroke-width: 0.4; stroke-linejoin: miter"/>
   </g>
   <g id="patch_54">
    <path d="M 386.035313 115.346698
L 440.602338 115.346698
L 440.602338 124.046151
L 386.035313 124.046151
z
" clip-path="url(#pe68dfadd28)" style="fill: #d1e5f0; stroke: #ffffff; stroke-width: 0.4; stroke-linejoin: miter"/>
   </g>
   <g id="patch_55">
    <path d="M 440.602338 115.346698
L 537.610382 115.346698
L 537.610382 124.046151
L 440.602338 124.046151
z
" clip-path="url(#pe68dfadd28)" style="fill: #67a9cf; stroke: #ffffff; stroke-width: 0.4; stroke-linejoin: miter"/>
   </g>
   <g id="patch_56">
    <path d="M 537.610382 115.346698
L 586.114404 115.346698
L 586.114404 124.046151
L 537.610382 124.046151
z
" clip-path="url(#pe68dfadd28)" style="fill: #2166ac; stroke: #ffffff; stroke-width: 0.4; stroke-linejoin: miter"/>
   </g>
   <g id="patch_57">
    <path d="M 386.035313 126.221014
L 349.657297 126.221014
L 349.657297 134.920466
L 386.035313 134.920466
z
" clip-path="url(#pe68dfadd28)" style="fill: #fddbc7; stroke: #ffffff; stroke-width: 0.4; stroke-linejoin: miter"/>
   </g>
   <g id="patch_58">
    <path d="M 349.657297 126.221014
L 331.468289 126.221014
L 331.468289 134.920466
L 349.657297 134.920466
z
" clip-path="url(#pe68dfadd28)" style="fill: #ef8a62; stroke: #ffffff; stroke-width: 0.4; stroke-linejoin: miter"/>
   </g>
   <g id="patch_59">
    <path d="M 331.468289 126.221014
L 325.405286 126.221014
L 325.405286 134.920466
L 331.468289 134.920466
z
" clip-path="url(#pe68dfadd28)" style="fill: #b2182b; stroke: #ffffff; stroke-width: 0.4; stroke-linejoin: miter"/>
   </g>
   <g id="patch_60">
    <path d="M 386.035313 126.221014
L 446.665341 126.221014
L 446.665341 134.920466
L 386.035313 134.920466
z
" clip-path="url(#pe68dfadd28)" style="fill: #d1e5f0; stroke: #ffffff; stroke-width: 0.4; stroke-linejoin: miter"/>
   </g>
   <g id="patch_61">
    <path d="M 446.665341 126.221014
L 531.547379 126.221014
L 531.547379 134.920466
L 446.665341 134.920466
z
" clip-path="url(#pe68dfadd28)" style="fill: #67a9cf; stroke: #ffffff; stroke-width: 0.4; stroke-linejoin: miter"/>
   </g>
   <g id="patch_62">
    <path d="M 531.547379 126.221014
L 580.051402 126.221014
L 580.051402 134.920466
L 531.547379 134.920466
z
" clip-path="url(#pe68dfadd28)" style="fill: #2166ac; stroke: #ffffff; stroke-width: 0.4; stroke-linejoin: miter"/>
   </g>
   <g id="patch_63">
    <path d="M 386.035313 137.095329
L 373.909308 137.095329
L 373.909308 145.794782
L 386.035313 145.794782
z
" clip-path="url(#pe68dfadd28)" style="fill: #fddbc7; stroke: #ffffff; stroke-width: 0.4; stroke-linejoin: miter"/>
   </g>
   <g id="patch_64">
    <path d="M 373.909308 137.095329
L 373.909308 137.095329
L 373.909308 145.794782
L 373.909308 145.794782
z
" clip-path="url(#pe68dfadd28)" style="fill: #ef8a62; stroke: #ffffff; stroke-width: 0.4; stroke-linejoin: miter"/>
   </g>
   <g id="patch_65">
    <path d="M 373.909308 137.095329
L 367.846305 137.095329
L 367.846305 145.794782
L 373.909308 145.794782
z
" clip-path="url(#pe68dfadd28)" style="fill: #b2182b; stroke: #ffffff; stroke-width: 0.4; stroke-linejoin: miter"/>
   </g>
   <g id="patch_66">
    <path d="M 386.035313 137.095329
L 398.161319 137.095329
L 398.161319 145.794782
L 386.035313 145.794782
z
" clip-path="url(#pe68dfadd28)" style="fill: #d1e5f0; stroke: #ffffff; stroke-width: 0.4; stroke-linejoin: miter"/>
   </g>
   <g id="patch_67">
    <path d="M 398.161319 137.095329
L 446.665341 137.095329
L 446.665341 145.794782
L 398.161319 145.794782
z
" clip-path="url(#pe68dfadd28)" style="fill: #67a9cf; stroke: #ffffff; stroke-width: 0.4; stroke-linejoin: miter"/>
   </g>
   <g id="patch_68">
    <path d="M 446.665341 137.095329
L 622.492421 137.095329
L 622.492421 145.794782
L 446.665341 145.794782
z
" clip-path="url(#pe68dfadd28)" style="fill: #2166ac; stroke: #ffffff; stroke-width: 0.4; stroke-linejoin: miter"/>
   </g>
   <g id="patch_69">
    <path d="M 386.035313 147.969645
L 386.035313 147.969645
L 386.035313 156.669097
L 386.035313 156.669097
z
" clip-path="url(#pe68dfadd28)" style="fill: #fddbc7; stroke: #ffffff; stroke-width: 0.4; stroke-linejoin: miter"/>
   </g>
   <g id="patch_70">
    <path d="M 386.035313 147.969645
L 373.909308 147.969645
L 373.909308 156.669097
L 386.035313 156.669097
z
" clip-path="url(#pe68dfadd28)" style="fill: #ef8a62; stroke: #ffffff; stroke-width: 0.4; stroke-linejoin: miter"/>
   </g>
   <g id="patch_71">
    <path d="M 373.909308 147.969645
L 367.846305 147.969645
L 367.846305 156.669097
L 373.909308 156.669097
z
" clip-path="url(#pe68dfadd28)" style="fill: #b2182b; stroke: #ffffff; stroke-width: 0.4; stroke-linejoin: miter"/>
   </g>
   <g id="patch_72">
    <path d="M 386.035313 147.969645
L 392.098316 147.969645
L 392.098316 156.669097
L 386.035313 156.669097
z
" clip-path="url(#pe68dfadd28)" style="fill: #d1e5f0; stroke: #ffffff; stroke-width: 0.4; stroke-linejoin: miter"/>
   </g>
   <g id="patch_73">
    <path d="M 392.098316 147.969645
L 458.791346 147.969645
L 458.791346 156.669097
L 392.098316 156.669097
z
" clip-path="url(#pe68dfadd28)" style="fill: #67a9cf; stroke: #ffffff; stroke-width: 0.4; stroke-linejoin: miter"/>
   </g>
   <g id="patch_74">
    <path d="M 458.791346 147.969645
L 622.492421 147.969645
L 622.492421 156.669097
L 458.791346 156.669097
z
" clip-path="url(#pe68dfadd28)" style="fill: #2166ac; stroke: #ffffff; stroke-width: 0.4; stroke-linejoin: miter"/>
   </g>
   <g id="line2d_21">
    <path d="M 386.035313 163.084943
L 386.035313 21.936328
" clip-path="url(#pe68dfadd28)" style="fill: none; stroke: #4c4c4c; stroke-width: 0.7; stroke-linecap: round"/>
   </g>
   <g id="patch_75">
    <path d="M 246.58625 163.084943
L 246.58625 21.936328
" style="fill: none; stroke: #cccccc; stroke-width: 1.25; stroke-linejoin: miter; stroke-linecap: square"/>
   </g>
   <g id="patch_76">
    <path d="M 246.58625 163.084943
L 646.744432 163.084943
" style="fill: none; stroke: #cccccc; stroke-width: 1.25; stroke-linejoin: miter; stroke-linecap: square"/>
   </g>
   <g id="text_22">
    <text style="font-weight: 700; font-size: 12px; font-family: 'Arial', 'DejaVu Sans', 'Liberation Sans', 'Bitstream Vera Sans', sans-serif; text-anchor: middle; fill: #262626" x="446.665341" y="15.936328" transform="rotate(-0 446.665341 15.936328)">Usability and distance-awareness item distributions</text>
   </g>
   <g id="legend_1">
    <g id="patch_77">
     <path d="M 278.714247 229.876655
L 614.616435 229.876655
Q 616.816435 229.876655 616.816435 227.676655
L 616.816435 196.191694
Q 616.816435 193.991694 614.616435 193.991694
L 278.714247 193.991694
Q 276.514247 193.991694 276.514247 196.191694
L 276.514247 227.676655
Q 276.514247 229.876655 278.714247 229.876655
z
" style="fill: #ffffff; opacity: 0.8; stroke: #cccccc; stroke-linejoin: miter"/>
    </g>
    <g id="text_23">
     <text style="font-size: 12px; font-family: 'Arial', 'DejaVu Sans', 'Liberation Sans', 'Bitstream Vera Sans', sans-serif; text-anchor: start; fill: #262626" x="419.649403" y="207.128022" transform="rotate(-0 419.649403 207.128022)">Response</text>
    </g>
    <g id="patch_78">
     <path d="M 280.914247 223.161714
L 302.914247 223.161714
L 302.914247 215.461714
L 280.914247 215.461714
z
" style="fill: #b2182b; stroke: #b2182b; stroke-linejoin: miter"/>
    </g>
    <g id="text_24">
     <text style="font-size: 11px; font-family: 'Arial', 'DejaVu Sans', 'Liberation Sans', 'Bitstream Vera Sans', sans-serif; text-anchor: start; fill: #262626" x="311.714247" y="223.161714" transform="rotate(-0 311.714247 223.161714)">1</text>
    </g>
    <g id="patch_79">
     <path d="M 339.831278 223.161714
L 361.831278 223.161714
L 361.831278 215.461714
L 339.831278 215.461714
z
" style="fill: #ef8a62; stroke: #ef8a62; stroke-linejoin: miter"/>
    </g>
    <g id="text_25">
     <text style="font-size: 11px; font-family: 'Arial', 'DejaVu Sans', 'Liberation Sans', 'Bitstream Vera Sans', sans-serif; text-anchor: start; fill: #262626" x="370.631278" y="223.161714" transform="rotate(-0 370.631278 223.161714)">2</text>
    </g>
    <g id="patch_80">
     <path d="M 398.74831 223.161714
L 420.74831 223.161714
L 420.74831 215.461714
L 398.74831 215.461714
z
" style="fill: #fddbc7; stroke: #fddbc7; stroke-linejoin: miter"/>
    </g>
    <g id="text_26">
     <text style="font-size: 11px; font-family: 'Arial', 'DejaVu Sans', 'Liberation Sans', 'Bitstream Vera Sans', sans-serif; text-anchor: start; fill: #262626" x="429.54831" y="223.161714" transform="rotate(-0 429.54831 223.161714)">3</text>
    </g>
    <g id="patch_81">
     <path d="M 457.665341 223.161714
L 479.665341 223.161714
L 479.665341 215.461714
L 457.665341 215.461714
z
" style="fill: #d1e5f0; stroke: #d1e5f0; stroke-linejoin: miter"/>
    </g>
    <g id="text_27">
     <text style="font-size: 11px; font-family: 'Arial', 'DejaVu Sans', 'Liberation Sans', 'Bitstream Vera Sans', sans-serif; text-anchor: start; fill: #262626" x="488.465341" y="223.161714" transform="rotate(-0 488.465341 223.161714)">4</text>
    </g>
    <g id="patch_82">
     <path d="M 516.582372 223.161714
L 538.582372 223.161714
L 538.582372 215.461714
L 516.582372 215.461714
z
" style="fill: #67a9cf; stroke: #67a9cf; stroke-linejoin: miter"/>
    </g>
    <g id="text_28">
     <text style="font-size: 11px; font-family: 'Arial', 'DejaVu Sans', 'Liberation Sans', 'Bitstream Vera Sans', sans-serif; text-anchor: start; fill: #262626" x="547.382372" y="223.161714" transform="rotate(-0 547.382372 223.161714)">5</text>
    </g>
    <g id="patch_83">
     <path d="M 575.499403 223.161714
L 597.499403 223.161714
L 597.499403 215.461714
L 575.499403 215.461714
z
" style="fill: #2166ac; stroke: #2166ac; stroke-linejoin: miter"/>
    </g>
    <g id="text_29">
     <text style="font-size: 11px; font-family: 'Arial', 'DejaVu Sans', 'Liberation Sans', 'Bitstream Vera Sans', sans-serif; text-anchor: start; fill: #262626" x="606.299403" y="223.161714" transform="rotate(-0 606.299403 223.161714)">6</text>
    </g>
   </g>
  </g>
 </g>
 <defs>
  <clipPath id="pe68dfadd28">
   <rect x="246.58625" y="21.936328" width="400.158182" height="141.148615"/>
  </clipPath>
 </defs>
</svg>
