<?xml version="1.0" encoding="utf-8" standalone="no"?>
<!DOCTYPE svg PUBLIC "-//W3C//DTD SVG 1.1//EN"
  "http://www.w3.org/Graphics/SVG/1.1/DTD/svg11.dtd">
<svg xmlns:xlink="http://www.w3.org/1999/xlink" width="657.056976pt" height="208.394812pt" viewBox="0 0 657.056976 208.394812" xmlns="http://www.w3.org/2000/svg" version="1.1">
 <metadata>
  <rdf:RDF xmlns:dc="http://purl.org/dc/elements/1.1/" xmlns:cc="http://creativecommons.org/ns#" xmlns:rdf="http://www.w3.org/1999/02/22-rdf-syntax-ns#">
   <cc:Work>
    <dc:type rdf:resource="http://purl.org/dc/dcmitype/StillImage"/>
    <dc:date>2026-08-28T09:40:20.069269</dc:date>
    <dc:format>image/svg+xml</dc:format>
    <dc:creator>
     <cc:Agent>
      <dc:title>Matplotlib v3.11.1, https://matplotlib.org/</dc:title>
     </cc:Agent>
    </dc:creator>
   </cc:Work>
  </rdf:RDF>
 </metadata>
 <defs>
  <style type="text/css">*{stroke-linejoin: round; stroke-linecap: butt}</style>
 </defs>
 <g id="figure_1">
  <g id="patch_1">
   <path d="M 0 208.394812
L 657.056976 208.394812
L 657.056976 -0
L 0 -0
z
" style="fill: #ffffff"/>
  </g>
  <g id="axes_1">
   <g id="patch_2">
    <path d="M 246.58625 134.028623
L 646.744432 134.028623
L 646.744432 21.936328
L 246.58625 21.936328
z
" style="fill: #ffffff"/>
   </g>
   <g id="matplotlib.axis_1">
    <g id="xtick_1">
     <g id="line2d_1">
      <path d="M 284.176867 134.028623
L 284.176867 21.936328
" clip-path="url(#pf4a67e0c9b)" style="fill: none; stroke: #cccccc; stroke-linecap: round"/>
     </g>
     <g id="text_1">
      <text style="font-size: 11px; font-family: 'Arial', 'DejaVu Sans', 'Liberation Sans', 'Bitstream Vera Sans', sans-serif; text-anchor: middle; fill: #262626" x="284.176867" y="151.536924" transform="rotate(-0 284.176867 151.536924)">−40</text>
     </g>
    </g>
    <g id="xtick_2">
     <g id="line2d_2">
      <path d="M 335.10609 134.028623
L 335.10609 21.936328
" clip-path="url(#pf4a67e0c9b)" style="fill: none; stroke: #cccccc; stroke-linecap: round"/>
     </g>
     <g id="text_2">
      <text style="font-size: 11px; font-family: 'Arial', 'DejaVu Sans', 'Liberation Sans', 'Bitstream Vera Sans', sans-serif; text-anchor: middle; fill: #262626" x="335.10609" y="151.536924" transform="rotate(-0 335.10609 151.536924)">−20</text>
     </g>
    </g>
    <g id="xtick_3">
     <g id="line2d_3">
      <path d="M 386.035313 134.028623
L 386.035313 21.936328
" clip-path="url(#pf4a67e0c9b)" style="fill: none; stroke: #cccccc; stroke-linecap: round"/>
     </g>
     <g id="text_3">
      <text style="font-size: 11px; font-family: 'Arial', 'DejaVu Sans', 'Liberation Sans', 'Bitstream Vera Sans', sans-serif; text-anchor: middle; fill: #262626" x="386.035313" y="151.536924" transform="rotate(-0 386.035313 151.536924)">0</text>
     </g>
    </g>
    <g id="xtick_4">
     <g id="line2d_4">
      <path d="M 436.964537 134.028623
L 436.964537 21.936328
" clip-path="url(#pf4a67e0c9b)" style="fill: none; stroke: #cccccc; stroke-linecap: round"/>
     </g>
     <g id="text_4">
      <text style="font-size: 11px; font-family: 'Arial', 'DejaVu Sans', 'Liberation Sans', 'Bitstream Vera Sans', sans-serif; text-anchor: middle; fill: #262626" x="436.964537" y="151.536924" transform="rotate(-0 436.964537 151.536924)">20</text>
     </g>
    </g>
    <g id="xtick_5">
     <g id="line2d_5">
      <path d="M 487.89376 134.028623
L 487.89376 21.936328
" clip-path="url(#pf4a67e0c9b)" style="fill: none; stroke: #cccccc; stroke-linecap: round"/>
     </g>
     <g id="text_5">
      <text style="font-size: 11px; font-family: 'Arial', 'DejaVu Sans', 'Liberation Sans', 'Bitstream Vera Sans', sans-serif; text-anchor: middle; fill: #262626" x="487.89376" y="151.536924" transform="rotate(-0 487.89376 151.536924)">40</text>
     </g>
    </g>
    <g id="xtick_6">
     <g id="line2d_6">
      <path d="M 538.822983 134.028623
L 538.822983 21.936328
" clip-path="url(#pf4a67e0c9b)" style="fill: none; stroke: #cccccc; stroke-linecap: round"/>
     </g>
     <g id="text_6">
      <text style="font-size: 11px; font-family: 'Arial', 'DejaVu Sans', 'Liberation Sans', 'Bitstream Vera Sans', sans-serif; text-anchor: middle; fill: #262626" x="538.822983" y="151.536924" transform="rotate(-0 538.822983 151.536924)">60</text>
     </g>
    </g>
    <g id="xtick_7">
     <g id="line2d_7">
      <path d="M 589.752206 134.028623
L 589.752206 21.936328
" clip-path="url(#pf4a67e0c9b)" style="fill: none; stroke: #cccccc; stroke-linecap: round"/>
     </g>
     <g id="text_7">
      <text style="font-size: 11px; font-family: 'Arial', 'DejaVu Sans', 'Liberation Sans', 'Bitstream Vera Sans', sans-serif; text-anchor: middle; fill: #262626" x="589.752206" y="151.536924" transform="rotate(-0 589.752206 151.536924)">80</text>
     </g>
    </g>
    <g id="xtick_8">
     <g id="line2d_8">
      <path d="M 640.681429 134.028623
L 640.681429 21.936328
" clip-path="url(#pf4a67e0c9b)" style="fill: none; stroke: #cccccc; stroke-linecap: round"/>
     </g>
     <g id="text_8">
      <text style="font-size: 11px; font-family: 'Arial', 'DejaVu Sans', 'Liberation Sans', 'Bitstream Vera Sans', sans-serif; text-anchor: middle; fill: #262626" x="640.681429" y="151.536924" transform="rotate(-0 640.681429 151.536924)">100</text>
     </g>
    </g>
    <g id="text_9">
     <text style="font-size: 12px; font-family: 'Arial', 'DejaVu Sans', 'Liberation Sans', 'Bitstream Vera Sans', sans-serif; text-anchor: middle; fill: #262626" x="446.665341" y="166.588194" transform="rotate(-0 446.665341 166.588194)">Percentage (1–3 disagree; 4–6 agree)</text>
    </g>
   </g>
   <g id="matplotlib.axis_2">
    <g id="ytick_1">
     <g id="line2d_9">
      <path d="M 246.58625 30.48574
L 646.744432 30.48574
" clip-path="url(#pf4a67e0c9b)" style="fill: none; stroke: #cccccc; stroke-linecap: round"/>
     </g>
     <g id="text_10">
      <text style="font-size: 11px; font-family: 'Arial', 'DejaVu Sans', 'Liberation Sans', 'Bitstream Vera Sans', sans-serif; text-anchor: end; fill: #262626" x="237.08625" y="34.489891" transform="rotate(-0 237.08625 34.489891)">Baseline — Environmental distance awareness</text>
     </g>
    </g>
    <g id="ytick_2">
     <g id="line2d_10">
      <path d="M 246.58625 39.121511
L 646.744432 39.121511
" clip-path="url(#pf4a67e0c9b)" style="fill: none; stroke: #cccccc; stroke-linecap: round"/>
     </g>
     <g id="text_11">
      <text style="font-size: 11px; font-family: 'Arial', 'DejaVu Sans', 'Liberation Sans', 'Bitstream Vera Sans', sans-serif; text-anchor: end; fill: #262626" x="237.08625" y="43.125661" transform="rotate(-0 237.08625 43.125661)">Baseline — Destination distance awareness</text>
     </g>
    </g>
    <g id="ytick_3">
     <g id="line2d_11">
      <path d="M 246.58625 47.757281
L 646.744432 47.757281
" clip-path="url(#pf4a67e0c9b)" style="fill: none; stroke: #cccccc; stroke-linecap: round"/>
     </g>
     <g id="text_12">
      <text style="font-size: 11px; font-family: 'Arial', 'DejaVu Sans', 'Liberation Sans', 'Bitstream Vera Sans', sans-serif; text-anchor: end; fill: #262626" x="237.08625" y="51.761431" transform="rotate(-0 237.08625 51.761431)">Baseline — Easy to learn</text>
     </g>
    </g>
    <g id="ytick_4">
     <g id="line2d_12">
      <path d="M 246.58625 56.393051
L 646.744432 56.393051
" clip-path="url(#pf4a67e0c9b)" style="fill: none; stroke: #cccccc; stroke-linecap: round"/>
     </g>
     <g id="text_13">
      <text style="font-size: 11px; font-family: 'Arial', 'DejaVu Sans', 'Liberation Sans', 'Bitstream Vera Sans', sans-serif; text-anchor: end; fill: #262626" x="237.08625" y="60.397201" transform="rotate(-0 237.08625 60.397201)">Baseline — Intuitive to use</text>
     </g>
    </g>
    <g id="ytick_5">
     <g id="line2d_13">
      <path d="M 246.58625 65.028821
L 646.744432 65.028821
" clip-path="url(#pf4a67e0c9b)" style="fill: none; stroke: #cccccc; stroke-linecap: round"/>
     </g>
     <g id="text_14">
      <text style="font-size: 11px; font-family: 'Arial', 'DejaVu Sans', 'Liberation Sans', 'Bitstream Vera Sans', sans-serif; text-anchor: end; fill: #262626" x="237.08625" y="69.032971" transform="rotate(-0 237.08625 69.032971)">Minimap — Environmental distance awareness</text>
     </g>
    </g>
    <g id="ytick_6">
     <g id="line2d_14">
      <path d="M 246.58625 73.664591
L 646.744432 73.664591
" clip-path="url(#pf4a67e0c9b)" style="fill: none; stroke: #cccccc; stroke-linecap: round"/>
     </g>
     <g id="text_15">
      <text style="font-size: 11px; font-family: 'Arial', 'DejaVu Sans', 'Liberation Sans', 'Bitstream Vera Sans', sans-serif; text-anchor: end; fill: #262626" x="237.08625" y="77.668741" transform="rotate(-0 237.08625 77.668741)">Minimap — Destination distance awareness</text>
     </g>
    </g>
    <g id="ytick_7">
     <g id="line2d_15">
      <path d="M 246.58625 82.300361
L 646.744432 82.300361
" clip-path="url(#pf4a67e0c9b)" style="fill: none; stroke: #cccccc; stroke-linecap: round"/>
     </g>
     <g id="text_16">
      <text style="font-size: 11px; font-family: 'Arial', 'DejaVu Sans', 'Liberation Sans', 'Bitstream Vera Sans', sans-serif; text-anchor: end; fill: #262626" x="237.08625" y="86.304511" transform="rotate(-0 237.08625 86.304511)">Minimap — Easy to learn</text>
     </g>
    </g>
    <g id="ytick_8">
     <g id="line2d_16">
      <path d="M 246.58625 90.936131
L 646.744432 90.936131
" clip-path="url(#pf4a67e0c9b)" style="fill: none; stroke: #cccccc; stroke-linecap: round"/>
     </g>
     <g id="text_17">
      <text style="font-size: 11px; font-family: 'Arial', 'DejaVu Sans', 'Liberation Sans', 'Bitstream Vera Sans', sans-serif; text-anchor: end; fill: #262626" x="237.08625" y="94.940281" transform="rotate(-0 237.08625 94.940281)">Minimap — Intuitive to use</text>
     </g>
    </g>
    <g id="ytick_9">
     <g id="line2d_17">
      <path d="M 246.58625 99.571901
L 646.744432 99.571901
" clip-path="url(#pf4a67e0c9b)" style="fill: none; stroke: #cccccc; stroke-linecap: round"/>
     </g>
     <g id="text_18">
      <text style="font-size: 11px; font-family: 'Arial', 'DejaVu Sans', 'Liberation Sans', 'Bitstream Vera Sans', sans-serif; text-anchor: end; fill: #262626" x="237.08625" y="103.576051" transform="rotate(-0 237.08625 103.576051)">Tsunami — Environmental distance awareness</text>
     </g>
    </g>
    <g id="ytick_10">
     <g id="line2d_18">
      <path d="M 246.58625 108.207671
L 646.744432 108.207671
" clip-path="url(#pf4a67e0c9b)" style="fill: none; stroke: #cccccc; stroke-linecap: round"/>
     </g>
     <g id="text_19">
      <text style="font-size: 11px; font-family: 'Arial', 'DejaVu Sans', 'Liberation Sans', 'Bitstream Vera Sans', sans-serif; text-anchor: end; fill: #262626" x="237.08625" y="112.211821" transform="rotate(-0 237.08625 112.211821)">Tsunami — Destination distance awareness</text>
     </g>
    </g>
    <g id="ytick_11">
     <g id="line2d_19">
      <path d="M 246.58625 116.843441
L 646.744432 116.843441
" clip-path="url(#pf4a67e0c9b)" style="fill: none; stroke: #cccccc; stroke-linecap: round"/>
     </g>
     <g id="text_20">
      <text style="font-size: 11px; font-family: 'Arial', 'DejaVu Sans', 'Liberation Sans', 'Bitstream Vera Sans', sans-serif; text-anchor: end; fill: #262626" x="237.08625" y="120.847591" transform="rotate(-0 237.08625 120.847591)">Tsunami — Easy to learn</text>
     </g>
    </g>
    <g id="ytick_12">
     <g id="line2d_20">
      <path d="M 246.58625 125.479211
L 646.744432 125.479211
" clip-path="url(#pf4a67e0c9b)" style="fill: none; stroke: #cccccc; stroke-linecap: round"/>
     </g>
     <g id="text_21">
      <text style="font-size: 11px; font-family: 'Arial', 'DejaVu Sans', 'Liberation Sans', 'Bitstream Vera Sans', sans-serif; text-anchor: end; fill: #262626" x="237.08625" y="129.483361" transform="rotate(-0 237.08625 129.483361)">Tsunami — Intuitive to use</text>
     </g>
    </g>
   </g>
   <g id="patch_3">
    <path d="M 386.035313 27.031432
L 373.909308 27.031432
L 373.909308 33.940048
L 386.035313 33.940048
z
" clip-path="url(#pf4a67e0c9b)" style="fill: #fddbc7; stroke: #ffffff; stroke-width: 0.4; stroke-linejoin: miter"/>
   </g>
   <g id="patch_4">
    <path d="M 373.909308 27.031432
L 325.405286 27.031432
L 325.405286 33.940048
L 373.909308 33.940048
z
" clip-path="url(#pf4a67e0c9b)" style="fill: #ef8a62; stroke: #ffffff; stroke-width: 0.4; stroke-linejoin: miter"/>
   </g>
   <g id="patch_5">
    <path d="M 325.405286 27.031432
L 313.27928 27.031432
L 313.27928 33.940048
L 325.405286 33.940048
z
" clip-path="url(#pf4a67e0c9b)" style="fill: #b2182b; stroke: #ffffff; stroke-width: 0.4; stroke-linejoin: miter"/>
   </g>
   <g id="patch_6">
    <path d="M 386.035313 27.031432
L 464.854349 27.031432
L 464.854349 33.940048
L 386.035313 33.940048
z
" clip-path="url(#pf4a67e0c9b)" style="fill: #d1e5f0; stroke: #ffffff; stroke-width: 0.4; stroke-linejoin: miter"/>
   </g>
   <g id="patch_7">
    <path d="M 464.854349 27.031432
L 525.484377 27.031432
L 525.484377 33.940048
L 464.854349 33.940048
z
" clip-path="url(#pf4a67e0c9b)" style="fill: #67a9cf; stroke: #ffffff; stroke-width: 0.4; stroke-linejoin: miter"/>
   </g>
   <g id="patch_8">
    <path d="M 525.484377 27.031432
L 567.925396 27.031432
L 567.925396 33.940048
L 525.484377 33.940048
z
" clip-path="url(#pf4a67e0c9b)" style="fill: #2166ac; stroke: #ffffff; stroke-width: 0.4; stroke-linejoin: miter"/>
   </g>
   <g id="patch_9">
    <path d="M 386.035313 35.667202
L 367.846305 35.667202
L 367.846305 42.575819
L 386.035313 42.575819
z
" clip-path="url(#pf4a67e0c9b)" style="fill: #fddbc7; stroke: #ffffff; stroke-width: 0.4; stroke-linejoin: miter"/>
   </g>
   <g id="patch_10">
    <path d="M 367.846305 35.667202
L 343.594294 35.667202
L 343.594294 42.575819
L 367.846305 42.575819
z
" clip-path="url(#pf4a67e0c9b)" style="fill: #ef8a62; stroke: #ffffff; stroke-width: 0.4; stroke-linejoin: miter"/>
   </g>
   <g id="patch_11">
    <path d="M 343.594294 35.667202
L 307.216278 35.667202
L 307.216278 42.575819
L 343.594294 42.575819
z
" clip-path="url(#pf4a67e0c9b)" style="fill: #b2182b; stroke: #ffffff; stroke-width: 0.4; stroke-linejoin: miter"/>
   </g>
   <g id="patch_12">
    <path d="M 386.035313 35.667202
L 470.917352 35.667202
L 470.917352 42.575819
L 386.035313 42.575819
z
" clip-path="url(#pf4a67e0c9b)" style="fill: #d1e5f0; stroke: #ffffff; stroke-width: 0.4; stroke-linejoin: miter"/>
   </g>
   <g id="patch_13">
    <path d="M 470.917352 35.667202
L 519.421374 35.667202
L 519.421374 42.575819
L 470.917352 42.575819
z
" clip-path="url(#pf4a67e0c9b)" style="fill: #67a9cf; stroke: #ffffff; stroke-width: 0.4; stroke-linejoin: miter"/>
   </g>
   <g id="patch_14">
    <path d="M 519.421374 35.667202
L 561.862393 35.667202
L 561.862393 42.575819
L 519.421374 42.575819
z
" clip-path="url(#pf4a67e0c9b)" style="fill: #2166ac; stroke: #ffffff; stroke-width: 0.4; stroke-linejoin: miter"/>
   </g>
   <g id="patch_15">
    <path d="M 386.035313 44.302973
L 379.972311 44.302973
L 379.972311 51.211589
L 386.035313 51.211589
z
" clip-path="url(#pf4a67e0c9b)" style="fill: #fddbc7; stroke: #ffffff; stroke-width: 0.4; stroke-linejoin: miter"/>
   </g>
   <g id="patch_16">
    <path d="M 379.972311 44.302973
L 379.972311 44.302973
L 379.972311 51.211589
L 379.972311 51.211589
z
" clip-path="url(#pf4a67e0c9b)" style="fill: #ef8a62; stroke: #ffffff; stroke-width: 0.4; stroke-linejoin: miter"/>
   </g>
   <g id="patch_17">
    <path d="M 379.972311 44.302973
L 373.909308 44.302973
L 373.909308 51.211589
L 379.972311 51.211589
z
" clip-path="url(#pf4a67e0c9b)" style="fill: #b2182b; stroke: #ffffff; stroke-width: 0.4; stroke-linejoin: miter"/>
   </g>
   <g id="patch_18">
    <path d="M 386.035313 44.302973
L 392.098316 44.302973
L 392.098316 51.211589
L 386.035313 51.211589
z
" clip-path="url(#pf4a67e0c9b)" style="fill: #d1e5f0; stroke: #ffffff; stroke-width: 0.4; stroke-linejoin: miter"/>
   </g>
   <g id="patch_19">
    <path d="M 392.098316 44.302973
L 440.602338 44.302973
L 440.602338 51.211589
L 392.098316 51.211589
z
" clip-path="url(#pf4a67e0c9b)" style="fill: #67a9cf; stroke: #ffffff; stroke-width: 0.4; stroke-linejoin: miter"/>
   </g>
   <g id="patch_20">
    <path d="M 440.602338 44.302973
L 628.555424 44.302973
L 628.555424 51.211589
L 440.602338 51.211589
z
" clip-path="url(#pf4a67e0c9b)" style="fill: #2166ac; stroke: #ffffff; stroke-width: 0.4; stroke-linejoin: miter"/>
   </g>
   <g id="patch_21">
    <path d="M 386.035313 52.938743
L 379.972311 52.938743
L 379.972311 59.847359
L 386.035313 59.847359
z
" clip-path="url(#pf4a67e0c9b)" style="fill: #fddbc7; stroke: #ffffff; stroke-width: 0.4; stroke-linejoin: miter"/>
   </g>
   <g id="patch_22">
    <path d="M 379.972311 52.938743
L 379.972311 52.938743
L 379.972311 59.847359
L 379.972311 59.847359
z
" clip-path="url(#pf4a67e0c9b)" style="fill: #ef8a62; stroke: #ffffff; stroke-width: 0.4; stroke-linejoin: miter"/>
   </g>
   <g id="patch_23">
    <path d="M 379.972311 52.938743
L 373.909308 52.938743
L 373.909308 59.847359
L 379.972311 59.847359
z
" clip-path="url(#pf4a67e0c9b)" style="fill: #b2182b; stroke: #ffffff; stroke-width: 0.4; stroke-linejoin: miter"/>
   </g>
   <g id="patch_24">
    <path d="M 386.035313 52.938743
L 404.224322 52.938743
L 404.224322 59.847359
L 386.035313 59.847359
z
" clip-path="url(#pf4a67e0c9b)" style="fill: #d1e5f0; stroke: #ffffff; stroke-width: 0.4; stroke-linejoin: miter"/>
   </g>
   <g id="patch_25">
    <path d="M 404.224322 52.938743
L 446.665341 52.938743
L 446.665341 59.847359
L 404.224322 59.847359
z
" clip-path="url(#pf4a67e0c9b)" style="fill: #67a9cf; stroke: #ffffff; stroke-width: 0.4; stroke-linejoin: miter"/>
   </g>
   <g id="patch_26">
    <path d="M 446.665341 52.938743
L 628.555424 52.938743
L 628.555424 59.847359
L 446.665341 59.847359
z
" clip-path="url(#pf4a67e0c9b)" style="fill: #2166ac; stroke: #ffffff; stroke-width: 0.4; stroke-linejoin: miter"/>
   </g>
   <g id="patch_27">
    <path d="M 386.035313 61.574513
L 337.531291 61.574513
L 337.531291 68.483129
L 386.035313 68.483129
z
" clip-path="url(#pf4a67e0c9b)" style="fill: #fddbc7; stroke: #ffffff; stroke-width: 0.4; stroke-linejoin: miter"/>
   </g>
   <g id="patch_28">
    <path d="M 337.531291 61.574513
L 289.027269 61.574513
L 289.027269 68.483129
L 337.531291 68.483129
z
" clip-path="url(#pf4a67e0c9b)" style="fill: #ef8a62; stroke: #ffffff; stroke-width: 0.4; stroke-linejoin: miter"/>
   </g>
   <g id="patch_29">
    <path d="M 289.027269 61.574513
L 264.775258 61.574513
L 264.775258 68.483129
L 289.027269 68.483129
z
" clip-path="url(#pf4a67e0c9b)" style="fill: #b2182b; stroke: #ffffff; stroke-width: 0.4; stroke-linejoin: miter"/>
   </g>
   <g id="patch_30">
    <path d="M 386.035313 61.574513
L 416.350327 61.574513
L 416.350327 68.483129
L 386.035313 68.483129
z
" clip-path="url(#pf4a67e0c9b)" style="fill: #d1e5f0; stroke: #ffffff; stroke-width: 0.4; stroke-linejoin: miter"/>
   </g>
   <g id="patch_31">
    <path d="M 416.350327 61.574513
L 501.232366 61.574513
L 501.232366 68.483129
L 416.350327 68.483129
z
" clip-path="url(#pf4a67e0c9b)" style="fill: #67a9cf; stroke: #ffffff; stroke-width: 0.4; stroke-linejoin: miter"/>
   </g>
   <g id="patch_32">
    <path d="M 501.232366 61.574513
L 519.421374 61.574513
L 519.421374 68.483129
L 501.232366 68.483129
z
" clip-path="url(#pf4a67e0c9b)" style="fill: #2166ac; stroke: #ffffff; stroke-width: 0.4; stroke-linejoin: miter"/>
   </g>
   <g id="patch_33">
    <path d="M 386.035313 70.210283
L 361.783302 70.210283
L 361.783302 77.118899
L 386.035313 77.118899
z
" clip-path="url(#pf4a67e0c9b)" style="fill: #fddbc7; stroke: #ffffff; stroke-width: 0.4; stroke-linejoin: miter"/>
   </g>
   <g id="patch_34">
    <path d="M 361.783302 70.210283
L 307.216278 70.210283
L 307.216278 77.118899
L 361.783302 77.118899
z
" clip-path="url(#pf4a67e0c9b)" style="fill: #ef8a62; stroke: #ffffff; stroke-width: 0.4; stroke-linejoin: miter"/>
   </g>
   <g id="patch_35">
    <path d="M 307.216278 70.210283
L 289.027269 70.210283
L 289.027269 77.118899
L 307.216278 77.118899
z
" clip-path="url(#pf4a67e0c9b)" style="fill: #b2182b; stroke: #ffffff; stroke-width: 0.4; stroke-linejoin: miter"/>
   </g>
   <g id="patch_36">
    <path d="M 386.035313 70.210283
L 434.539335 70.210283
L 434.539335 77.118899
L 386.035313 77.118899
z
" clip-path="url(#pf4a67e0c9b)" style="fill: #d1e5f0; stroke: #ffffff; stroke-width: 0.4; stroke-linejoin: miter"/>
   </g>
   <g id="patch_37">
    <path d="M 434.539335 70.210283
L 501.232366 70.210283
L 501.232366 77.118899
L 434.539335 77.118899
z
" clip-path="url(#pf4a67e0c9b)" style="fill: #67a9cf; stroke: #ffffff; stroke-width: 0.4; stroke-linejoin: miter"/>
   </g>
   <g id="patch_38">
    <path d="M 501.232366 70.210283
L 543.673385 70.210283
L 543.673385 77.118899
L 501.232366 77.118899
z
" clip-path="url(#pf4a67e0c9b)" style="fill: #2166ac; stroke: #ffffff; stroke-width: 0.4; stroke-linejoin: miter"/>
   </g>
   <g id="patch_39">
    <path d="M 386.035313 78.846053
L 379.972311 78.846053
L 379.972311 85.754669
L 386.035313 85.754669
z
" clip-path="url(#pf4a67e0c9b)" style="fill: #fddbc7; stroke: #ffffff; stroke-width: 0.4; stroke-linejoin: miter"/>
   </g>
   <g id="patch_40">
    <path d="M 379.972311 78.846053
L 355.7203 78.846053
L 355.7203 85.754669
L 379.972311 85.754669
z
" clip-path="url(#pf4a67e0c9b)" style="fill: #ef8a62; stroke: #ffffff; stroke-width: 0.4; stroke-linejoin: miter"/>
   </g>
   <g id="patch_41">
    <path d="M 355.7203 78.846053
L 349.657297 78.846053
L 349.657297 85.754669
L 355.7203 85.754669
z
" clip-path="url(#pf4a67e0c9b)" style="fill: #b2182b; stroke: #ffffff; stroke-width: 0.4; stroke-linejoin: miter"/>
   </g>
   <g id="patch_42">
    <path d="M 386.035313 78.846053
L 428.476333 78.846053
L 428.476333 85.754669
L 386.035313 85.754669
z
" clip-path="url(#pf4a67e0c9b)" style="fill: #d1e5f0; stroke: #ffffff; stroke-width: 0.4; stroke-linejoin: miter"/>
   </g>
   <g id="patch_43">
    <path d="M 428.476333 78.846053
L 489.10636 78.846053
L 489.10636 85.754669
L 428.476333 85.754669
z
" clip-path="url(#pf4a67e0c9b)" style="fill: #67a9cf; stroke: #ffffff; stroke-width: 0.4; stroke-linejoin: miter"/>
   </g>
   <g id="patch_44">
    <path d="M 489.10636 78.846053
L 604.303413 78.846053
L 604.303413 85.754669
L 489.10636 85.754669
z
" clip-path="url(#pf4a67e0c9b)" style="fill: #2166ac; stroke: #ffffff; stroke-width: 0.4; stroke-linejoin: miter"/>
   </g>
   <g id="patch_45">
    <path d="M 386.035313 87.481823
L 355.7203 87.481823
L 355.7203 94.390439
L 386.035313 94.390439
z
" clip-path="url(#pf4a67e0c9b)" style="fill: #fddbc7; stroke: #ffffff; stroke-width: 0.4; stroke-linejoin: miter"/>
   </g>
   <g id="patch_46">
    <path d="M 355.7203 87.481823
L 325.405286 87.481823
L 325.405286 94.390439
L 355.7203 94.390439
z
" clip-path="url(#pf4a67e0c9b)" style="fill: #ef8a62; stroke: #ffffff; stroke-width: 0.4; stroke-linejoin: miter"/>
   </g>
   <g id="patch_47">
    <path d="M 325.405286 87.481823
L 307.216278 87.481823
L 307.216278 94.390439
L 325.405286 94.390439
z
" clip-path="url(#pf4a67e0c9b)" style="fill: #b2182b; stroke: #ffffff; stroke-width: 0.4; stroke-linejoin: miter"/>
   </g>
   <g id="patch_48">
    <path d="M 386.035313 87.481823
L 452.728344 87.481823
L 452.728344 94.390439
L 386.035313 94.390439
z
" clip-path="url(#pf4a67e0c9b)" style="fill: #d1e5f0; stroke: #ffffff; stroke-width: 0.4; stroke-linejoin: miter"/>
   </g>
   <g id="patch_49">
    <path d="M 452.728344 87.481823
L 489.10636 87.481823
L 489.10636 94.390439
L 452.728344 94.390439
z
" clip-path="url(#pf4a67e0c9b)" style="fill: #67a9cf; stroke: #ffffff; stroke-width: 0.4; stroke-linejoin: miter"/>
   </g>
   <g id="patch_50">
    <path d="M 489.10636 87.481823
L 561.862393 87.481823
L 561.862393 94.390439
L 489.10636 94.390439
z
" clip-path="url(#pf4a67e0c9b)" style="fill: #2166ac; stroke: #ffffff; stroke-width: 0.4; stroke-linejoin: miter"/>
   </g>
   <g id="patch_51">
    <path d="M 386.035313 96.117593
L 355.7203 96.117593
L 355.7203 103.026209
L 386.035313 103.026209
z
" clip-path="url(#pf4a67e0c9b)" style="fill: #fddbc7; stroke: #ffffff; stroke-width: 0.4; stroke-linejoin: miter"/>
   </g>
   <g id="patch_52">
    <path d="M 355.7203 96.117593
L 343.594294 96.117593
L 343.594294 103.026209
L 355.7203 103.026209
z
" clip-path="url(#pf4a67e0c9b)" style="fill: #ef8a62; stroke: #ffffff; stroke-width: 0.4; stroke-linejoin: miter"/>
   </g>
   <g id="patch_53">
    <path d="M 343.594294 96.117593
L 331.468289 96.117593
L 331.468289 103.026209
L 343.594294 103.026209
z
" clip-path="url(#pf4a67e0c9b)" style="fill: #b2182b; stroke: #ffffff; stroke-width: 0.4; stroke-linejoin: miter"/>
   </g>
   <g id="patch_54">
    <path d="M 386.035313 96.117593
L 440.602338 96.117593
L 440.602338 103.026209
L 386.035313 103.026209
z
" clip-path="url(#pf4a67e0c9b)" style="fill: #d1e5f0; stroke: #ffffff; stroke-width: 0.4; stroke-linejoin: miter"/>
   </g>
   <g id="patch_55">
    <path d="M 440.602338 96.117593
L 537.610382 96.117593
L 537.610382 103.026209
L 440.602338 103.026209
z
" clip-path="url(#pf4a67e0c9b)" style="fill: #67a9cf; stroke: #ffffff; stroke-width: 0.4; stroke-linejoin: miter"/>
   </g>
   <g id="patch_56">
    <path d="M 537.610382 96.117593
L 586.114404 96.117593
L 586.114404 103.026209
L 537.610382 103.026209
z
" clip-path="url(#pf4a67e0c9b)" style="fill: #2166ac; stroke: #ffffff; stroke-width: 0.4; stroke-linejoin: miter"/>
   </g>
   <g id="patch_57">
    <path d="M 386.035313 104.753363
L 349.657297 104.753363
L 349.657297 111.661979
L 386.035313 111.661979
z
" clip-path="url(#pf4a67e0c9b)" style="fill: #fddbc7; stroke: #ffffff; stroke-width: 0.4; stroke-linejoin: miter"/>
   </g>
   <g id="patch_58">
    <path d="M 349.657297 104.753363
L 331.468289 104.753363
L 331.468289 111.661979
L 349.657297 111.661979
z
" clip-path="url(#pf4a67e0c9b)" style="fill: #ef8a62; stroke: #ffffff; stroke-width: 0.4; stroke-linejoin: miter"/>
   </g>
   <g id="patch_59">
    <path d="M 331.468289 104.753363
L 325.405286 104.753363
L 325.405286 111.661979
L 331.468289 111.661979
z
" clip-path="url(#pf4a67e0c9b)" style="fill: #b2182b; stroke: #ffffff; stroke-width: 0.4; stroke-linejoin: miter"/>
   </g>
   <g id="patch_60">
    <path d="M 386.035313 104.753363
L 446.665341 104.753363
L 446.665341 111.661979
L 386.035313 111.661979
z
" clip-path="url(#pf4a67e0c9b)" style="fill: #d1e5f0; stroke: #ffffff; stroke-width: 0.4; stroke-linejoin: miter"/>
   </g>
   <g id="patch_61">
    <path d="M 446.665341 104.753363
L 531.547379 104.753363
L 531.547379 111.661979
L 446.665341 111.661979
z
" clip-path="url(#pf4a67e0c9b)" style="fill: #67a9cf; stroke: #ffffff; stroke-width: 0.4; stroke-linejoin: miter"/>
   </g>
   <g id="patch_62">
    <path d="M 531.547379 104.753363
L 580.051402 104.753363
L 580.051402 111.661979
L 531.547379 111.661979
z
" clip-path="url(#pf4a67e0c9b)" style="fill: #2166ac; stroke: #ffffff; stroke-width: 0.4; stroke-linejoin: miter"/>
   </g>
   <g id="patch_63">
    <path d="M 386.035313 113.389133
L 373.909308 113.389133
L 373.909308 120.297749
L 386.035313 120.297749
z
" clip-path="url(#pf4a67e0c9b)" style="fill: #fddbc7; stroke: #ffffff; stroke-width: 0.4; stroke-linejoin: miter"/>
   </g>
   <g id="patch_64">
    <path d="M 373.909308 113.389133
L 373.909308 113.389133
L 373.909308 120.297749
L 373.909308 120.297749
z
" clip-path="url(#pf4a67e0c9b)" style="fill: #ef8a62; stroke: #ffffff; stroke-width: 0.4; stroke-linejoin: miter"/>
   </g>
   <g id="patch_65">
    <path d="M 373.909308 113.389133
L 367.846305 113.389133
L 367.846305 120.297749
L 373.909308 120.297749
z
" clip-path="url(#pf4a67e0c9b)" style="fill: #b2182b; stroke: #ffffff; stroke-width: 0.4; stroke-linejoin: miter"/>
   </g>
   <g id="patch_66">
    <path d="M 386.035313 113.389133
L 398.161319 113.389133
L 398.161319 120.297749
L 386.035313 120.297749
z
" clip-path="url(#pf4a67e0c9b)" style="fill: #d1e5f0; stroke: #ffffff; stroke-width: 0.4; stroke-linejoin: miter"/>
   </g>
   <g id="patch_67">
    <path d="M 398.161319 113.389133
L 446.665341 113.389133
L 446.665341 120.297749
L 398.161319 120.297749
z
" clip-path="url(#pf4a67e0c9b)" style="fill: #67a9cf; stroke: #ffffff; stroke-width: 0.4; stroke-linejoin: miter"/>
   </g>
   <g id="patch_68">
    <path d="M 446.665341 113.389133
L 622.492421 113.389133
L 622.492421 120.297749
L 446.665341 120.297749
z
" clip-path="url(#pf4a67e0c9b)" style="fill: #2166ac; stroke: #ffffff; stroke-width: 0.4; stroke-linejoin: miter"/>
   </g>
   <g id="patch_69">
    <path d="M 386.035313 122.024903
L 386.035313 122.024903
L 386.035313 128.933519
L 386.035313 128.933519
z
" clip-path="url(#pf4a67e0c9b)" style="fill: #fddbc7; stroke: #ffffff; stroke-width: 0.4; stroke-linejoin: miter"/>
   </g>
   <g id="patch_70">
    <path d="M 386.035313 122.024903
L 373.909308 122.024903
L 373.909308 128.933519
L 386.035313 128.933519
z
" clip-path="url(#pf4a67e0c9b)" style="fill: #ef8a62; stroke: #ffffff; stroke-width: 0.4; stroke-linejoin: miter"/>
   </g>
   <g id="patch_71">
    <path d="M 373.909308 122.024903
L 367.846305 122.024903
L 367.846305 128.933519
L 373.909308 128.933519
z
" clip-path="url(#pf4a67e0c9b)" style="fill: #b2182b; stroke: #ffffff; stroke-width: 0.4; stroke-linejoin: miter"/>
   </g>
   <g id="patch_72">
    <path d="M 386.035313 122.024903
L 392.098316 122.024903
L 392.098316 128.933519
L 386.035313 128.933519
z
" clip-path="url(#pf4a67e0c9b)" style="fill: #d1e5f0; stroke: #ffffff; stroke-width: 0.4; stroke-linejoin: miter"/>
   </g>
   <g id="patch_73">
    <path d="M 392.098316 122.024903
L 458.791346 122.024903
L 458.791346 128.933519
L 392.098316 128.933519
z
" clip-path="url(#pf4a67e0c9b)" style="fill: #67a9cf; stroke: #ffffff; stroke-width: 0.4; stroke-linejoin: miter"/>
   </g>
   <g id="patch_74">
    <path d="M 458.791346 122.024903
L 622.492421 122.024903
L 622.492421 128.933519
L 458.791346 128.933519
z
" clip-path="url(#pf4a67e0c9b)" style="fill: #2166ac; stroke: #ffffff; stroke-width: 0.4; stroke-linejoin: miter"/>
   </g>
   <g id="line2d_21">
    <path d="M 386.035313 134.028623
L 386.035313 21.936328
" clip-path="url(#pf4a67e0c9b)" style="fill: none; stroke: #4c4c4c; stroke-width: 0.7; stroke-linecap: round"/>
   </g>
   <g id="patch_75">
    <path d="M 246.58625 134.028623
L 246.58625 21.936328
" style="fill: none; stroke: #cccccc; stroke-width: 1.25; stroke-linejoin: miter; stroke-linecap: square"/>
   </g>
   <g id="patch_76">
    <path d="M 246.58625 134.028623
L 646.744432 134.028623
" style="fill: none; stroke: #cccccc; stroke-width: 1.25; stroke-linejoin: miter; stroke-linecap: square"/>
   </g>
   <g id="text_22">
    <text style="font-weight: 700; font-size: 12px; font-family: 'Arial', 'DejaVu Sans', 'Liberation Sans', 'Bitstream Vera Sans', sans-serif; text-anchor: middle; fill: #262626" x="446.665341" y="15.936328" transform="rotate(-0 446.665341 15.936328)">Usability and distance-awareness item distributions</text>
   </g>
   <g id="legend_1">
    <g id="patch_77">
     <path d="M 278.714247 201.194812
L 614.616435 201.194812
Q 616.816435 201.194812 616.816435 198.994812
L 616.816435 167.509851
Q 616.816435 165.309851 614.616435 165.309851
L 278.714247 165.309851
Q 276.514247 165.309851 276.514247 167.509851
L 276.514247 198.994812
Q 276.514247 201.194812 278.714247 201.194812
z
" style="fill: #ffffff; opacity: 0.8; stroke: #cccccc; stroke-linejoin: miter"/>
    </g>
    <g id="text_23">
     <text style="font-size: 12px; font-family: 'Arial', 'DejaVu Sans', 'Liberation Sans', 'Bitstream Vera Sans', sans-serif; text-anchor: start; fill: #262626" x="419.649403" y="178.446179" transform="rotate(-0 419.649403 178.446179)">Response</text>
    </g>
    <g id="patch_78">
     <path d="M 280.914247 194.479871
L 302.914247 194.479871
L 302.914247 186.779871
L 280.914247 186.779871
z
" style="fill: #b2182b; stroke: #b2182b; stroke-linejoin: miter"/>
    </g>
    <g id="text_24">
     <text style="font-size: 11px; font-family: 'Arial', 'DejaVu Sans', 'Liberation Sans', 'Bitstream Vera Sans', sans-serif; text-anchor: start; fill: #262626" x="311.714247" y="194.479871" transform="rotate(-0 311.714247 194.479871)">1</text>
    </g>
    <g id="patch_79">
     <path d="M 339.831278 194.479871
L 361.831278 194.479871
L 361.831278 186.779871
L 339.831278 186.779871
z
" style="fill: #ef8a62; stroke: #ef8a62; stroke-linejoin: miter"/>
    </g>
    <g id="text_25">
     <text style="font-size: 11px; font-family: 'Arial', 'DejaVu Sans', 'Liberation Sans', 'Bitstream Vera Sans', sans-serif; text-anchor: start; fill: #262626" x="370.631278" y="194.479871" transform="rotate(-0 370.631278 194.479871)">2</text>
    </g>
    <g id="patch_80">
     <path d="M 398.74831 194.479871
L 420.74831 194.479871
L 420.74831 186.779871
L 398.74831 186.779871
z
" style="fill: #fddbc7; stroke: #fddbc7; stroke-linejoin: miter"/>
    </g>
    <g id="text_26">
     <text style="font-size: 11px; font-family: 'Arial', 'DejaVu Sans', 'Liberation Sans', 'Bitstream Vera Sans', sans-serif; text-anchor: start; fill: #262626" x="429.54831" y="194.479871" transform="rotate(-0 429.54831 194.479871)">3</text>
    </g>
    <g id="patch_81">
     <path d="M 457.665341 194.479871
L 479.665341 194.479871
L 479.665341 186.779871
L 457.665341 186.779871
z
" style="fill: #d1e5f0; stroke: #d1e5f0; stroke-linejoin: miter"/>
    </g>
    <g id="text_27">
     <text style="font-size: 11px; font-family: 'Arial', 'DejaVu Sans', 'Liberation Sans', 'Bitstream Vera Sans', sans-serif; text-anchor: start; fill: #262626" x="488.465341" y="194.479871" transform="rotate(-0 488.465341 194.479871)">4</text>
    </g>
    <g id="patch_82">
     <path d="M 516.582372 194.479871
L 538.582372 194.479871
L 538.582372 186.779871
L 516.582372 186.779871
z
" style="fill: #67a9cf; stroke: #67a9cf; stroke-linejoin: miter"/>
    </g>
    <g id="text_28">
     <text style="font-size: 11px; font-family: 'Arial', 'DejaVu Sans', 'Liberation Sans', 'Bitstream Vera Sans', sans-serif; text-anchor: start; fill: #262626" x="547.382372" y="194.479871" transform="rotate(-0 547.382372 194.479871)">5</text>
    </g>
    <g id="patch_83">
     <path d="M 575.499403 194.479871
L 597.499403 194.479871
L 597.499403 186.779871
L 575.499403 186.779871
z
" style="fill: #2166ac; stroke: #2166ac; stroke-linejoin: miter"/>
    </g>
    <g id="text_29">
     <text style="font-size: 11px; font-family: 'Arial', 'DejaVu Sans', 'Liberation Sans', 'Bitstream Vera Sans', sans-serif; text-anchor: start; fill: #262626" x="606.299403" y="194.479871" transform="rotate(-0 606.299403 194.479871)">6</text>
    </g>
   </g>
  </g>
 </g>
 <defs>
  <clipPath id="pf4a67e0c9b">
   <rect x="246.58625" y="21.936328" width="400.158182" height="112.092295"/>
  </clipPath>
 </defs>
</svg>
